<?xml version="1.0" standalone="no"?>
<!DOCTYPE svg PUBLIC "-//W3C//DTD SVG 20010904//EN"
 "http://www.w3.org/TR/2001/REC-SVG-20010904/DTD/svg10.dtd">
<svg version="1.0" xmlns="http://www.w3.org/2000/svg"
 width="1147.000000pt" height="1147.000000pt" viewBox="0 0 1147.000000 1147.000000"
 preserveAspectRatio="xMidYMid meet">
<metadata>
Created by potrace 1.14, written by Peter Selinger 2001-2017
</metadata>
<g transform="translate(0.000000,1147.000000) scale(0.100000,-0.100000)"
fill="#000000" stroke="none">
<path d="M280 11460 c157 -3 286 -7 288 -8 2 -1 0 -6 -3 -12 -3 -5 0 -10 7
-10 8 -1 6 -6 -6 -15 -18 -14 -16 -15 27 -15 44 0 47 -2 47 -26 0 -18 6 -28
20 -31 16 -4 20 -13 19 -42 -1 -20 3 -52 8 -72 14 -48 5 -99 -16 -99 -9 0 -29
9 -46 20 -32 21 -75 27 -75 10 0 -5 -6 -10 -13 -10 -21 0 -36 -64 -57 -252
-20 -174 -37 -275 -51 -293 -3 -5 -10 -30 -13 -55 -10 -61 -54 -228 -71 -265
-14 -30 -39 -129 -55 -215 -12 -64 -41 -181 -51 -205 -16 -40 -28 -91 -39
-164 -6 -40 -20 -102 -31 -136 -14 -43 -19 -83 -17 -126 3 -59 5 -64 35 -82
47 -27 133 -57 165 -57 15 0 29 -4 33 -9 3 -5 19 -12 35 -16 17 -4 30 -10 30
-14 0 -9 90 -35 115 -33 11 0 21 6 23 12 2 5 13 10 23 10 24 0 53 14 78 38 10
9 35 31 56 47 45 36 85 102 85 140 0 27 31 177 51 245 12 40 18 92 25 200 3
41 8 82 11 90 10 26 12 42 14 130 1 47 5 90 9 95 5 6 10 35 13 65 3 30 10 93
16 140 7 47 19 137 27 200 8 63 17 131 20 150 3 19 7 46 9 59 4 29 -13 65 -49
102 -19 21 -38 28 -85 34 -51 6 -62 10 -66 28 -7 30 -9 167 -3 257 5 66 8 76
29 87 27 14 103 18 95 5 -3 -5 27 -2 67 6 40 8 90 13 112 13 47 -2 40 9 -12
19 -37 8 -37 8 14 9 28 0 55 6 58 11 3 6 23 10 43 11 20 0 46 4 57 9 13 6 2 7
-29 3 -35 -4 -47 -3 -42 5 5 8 126 11 413 12 224 0 409 3 412 5 2 3 -457 4
-1020 3 -576 -1 -899 -5 -739 -8z"/>
<path d="M2513 11459 c2 -13 -113 -48 -159 -49 -46 0 -94 -11 -89 -20 3 -4
-13 -10 -34 -14 -35 -5 -51 -20 -51 -46 0 -18 92 -109 126 -125 38 -18 64 -14
64 9 0 12 77 66 94 66 10 0 6 -119 -4 -125 -6 -3 -23 3 -39 15 -30 20 -46 15
-35 -13 7 -19 -24 -31 -42 -16 -7 6 -19 7 -25 3 -7 -4 -9 -3 -6 2 3 6 -6 15
-21 22 -15 6 -58 39 -97 72 -76 67 -100 72 -100 23 0 -17 3 -29 8 -26 4 2 7
16 7 29 0 16 5 24 13 22 6 -3 12 -10 12 -16 0 -7 3 -11 6 -9 11 3 49 -35 44
-43 -3 -5 9 -13 25 -19 34 -11 41 -22 10 -14 -11 3 -20 1 -20 -5 0 -10 41 -25
70 -26 9 -1 16 -13 18 -33 3 -28 7 -33 31 -33 15 0 32 5 38 11 15 15 46 18 60
7 7 -5 17 -7 23 -3 5 3 10 2 10 -4 0 -5 -4 -12 -9 -15 -4 -3 -7 -16 -6 -28 1
-13 0 -15 -2 -5 -9 36 -26 17 -20 -23 3 -28 1 -40 -6 -39 -7 1 -26 1 -44 0
-24 -1 -31 -5 -27 -16 4 -8 11 -12 18 -8 17 11 36 12 36 2 0 -5 -13 -12 -29
-15 -38 -8 -44 -22 -47 -114 -2 -41 -11 -92 -19 -113 -8 -20 -15 -47 -15 -60
0 -13 -3 -17 -8 -11 -4 7 -7 -14 -8 -45 -1 -31 -8 -72 -17 -91 -15 -34 -29
-91 -42 -175 -4 -22 -10 -44 -15 -50 -4 -5 -10 -32 -14 -60 -3 -27 -20 -99
-37 -160 -17 -60 -32 -114 -33 -120 -6 -31 -40 -131 -48 -139 -4 -6 -8 -16 -8
-22 0 -12 -45 -117 -78 -181 -16 -33 -16 -33 17 -60 18 -15 49 -33 69 -41 51
-19 189 -45 205 -39 8 3 17 18 21 34 7 26 63 180 91 248 12 28 34 103 51 170
4 17 6 36 5 43 -1 7 4 34 13 60 8 26 17 65 21 87 3 22 10 54 15 70 5 17 19 95
30 175 41 284 47 308 64 264 3 -8 11 -12 17 -8 9 5 8 10 -3 18 -24 18 -27 41
-16 111 8 47 15 65 24 61 8 -3 11 0 8 9 -3 7 -13 13 -22 13 -33 -1 -72 21 -66
37 4 8 1 15 -6 15 -8 0 -10 17 -6 63 8 74 23 167 25 149 0 -7 5 -11 9 -8 8 5
15 -46 14 -96 -1 -24 10 -22 31 7 16 23 16 24 0 34 -10 5 -15 12 -13 15 3 3
54 8 113 11 90 5 107 4 107 -9 0 -8 -12 -19 -27 -24 l-28 -10 26 -1 c25 -1 26
-4 24 -48 -2 -32 -1 -35 2 -10 l4 37 80 0 79 0 0 -80 0 -80 30 0 c28 0 30 2
30 40 0 37 -2 40 -27 40 l-28 1 28 24 c30 26 47 32 47 15 0 -5 18 -10 40 -10
33 0 40 3 40 20 0 18 7 20 80 20 64 0 80 -3 80 -15 0 -12 16 -15 80 -15 47 0
80 -4 80 -10 0 -5 18 -10 40 -10 33 0 40 3 40 20 0 17 -7 20 -40 20 -22 0 -40
5 -40 10 0 6 -56 10 -149 10 -110 0 -151 3 -155 13 -5 10 -7 10 -12 0 -3 -7
-23 -13 -45 -13 l-39 0 0 80 c0 78 1 80 24 80 20 0 25 6 31 40 l7 40 89 0 89
0 0 39 c0 22 -5 41 -12 44 -8 2 -9 8 -4 13 5 5 11 4 13 -3 3 -10 38 -13 124
-13 101 0 119 -2 119 -15 0 -9 11 -27 25 -40 22 -23 32 -25 120 -25 88 0 95 1
95 20 0 19 -7 20 -100 20 -93 0 -100 1 -100 20 0 19 7 20 93 20 50 0 110 3
132 7 l40 6 -35 13 c-26 9 -95 11 -272 7 -177 -5 -238 -3 -238 5 0 9 68 12
253 13 138 0 261 4 272 9 24 10 54 9 -320 11 -408 2 -378 4 -371 -25 8 -33 -9
-76 -31 -76 -20 0 -43 -42 -43 -78 0 -13 -6 -30 -14 -38 -20 -19 -50 -19 -42
1 3 9 -3 19 -14 25 -16 9 -20 7 -21 -7 -1 -10 -1 -21 0 -25 0 -5 -3 -8 -9 -8
-5 0 -10 -7 -10 -15 0 -8 -4 -15 -10 -15 -5 0 -10 7 -10 15 0 14 -11 19 -35
16 -5 0 -1 5 9 12 10 6 28 22 39 34 15 16 27 20 52 16 35 -6 55 11 36 30 -20
20 -11 30 11 11 21 -19 21 -19 13 1 -5 11 -8 32 -7 46 1 24 -4 21 -60 -33 -33
-32 -68 -58 -77 -58 -9 0 -39 -14 -65 -30 -38 -24 -51 -28 -62 -19 -8 6 -14 8
-14 4 0 -4 -7 -2 -15 5 -11 9 -25 8 -67 -6 -29 -10 -75 -19 -101 -20 l-49 -2
7 52 c4 28 9 60 12 71 l6 20 8 -20 c7 -19 8 -18 8 4 1 18 5 22 19 16 9 -3 40
-9 67 -12 28 -3 55 -12 62 -20 6 -8 14 -14 17 -14 20 3 26 -1 26 -14 0 -8 8
-15 19 -15 24 0 118 75 118 94 0 8 -4 13 -8 10 -4 -2 -10 0 -14 6 -3 5 0 10 8
10 8 0 21 8 30 18 19 21 23 42 5 24 -7 -7 -27 -12 -45 -12 -31 0 -33 2 -34 38
-2 31 -3 32 -6 9 -4 -22 -9 -28 -26 -25 -22 3 -39 48 -18 48 6 0 11 5 11 10 0
6 -8 5 -20 -2 -15 -10 -22 -10 -32 0 -6 6 -26 13 -43 13 -27 2 -26 3 10 9 28
5 7 8 -72 9 -78 1 -112 -2 -110 -10z m67 -9 c0 -5 -2 -10 -4 -10 -3 0 -8 5
-11 10 -3 6 -1 10 4 10 6 0 11 -4 11 -10z m-223 -66 c-3 -3 -12 -4 -19 -1 -8
3 -5 6 6 6 11 1 17 -2 13 -5z m1356 -61 c-24 -2 -62 -2 -85 0 -24 2 -5 4 42 4
47 0 66 -2 43 -4z m-523 -33 c0 -23 -10 -26 -28 -8 -18 18 -15 28 8 28 13 0
20 -7 20 -20z m-210 -50 c0 -5 -8 -10 -17 -10 -15 0 -16 2 -3 10 19 12 20 12
20 0z m-135 -80 c-3 -5 -11 -10 -16 -10 -6 0 -7 5 -4 10 3 6 11 10 16 10 6 0
7 -4 4 -10z m-500 -40 c3 -5 -1 -10 -9 -10 -9 0 -16 5 -16 10 0 6 4 10 9 10 6
0 13 -4 16 -10z m440 -20 c0 -24 -3 -25 -65 -26 -139 -1 -171 19 -50 31 39 4
73 11 76 17 12 18 39 3 39 -22z m-345 -130 c-6 -12 -14 -19 -17 -17 -2 3 1 15
7 27 6 12 14 19 17 17 2 -3 -1 -15 -7 -27z m-30 -40 c0 -5 -7 -7 -15 -4 -8 4
-15 8 -15 10 0 2 7 4 15 4 8 0 15 -4 15 -10z"/>
<path d="M2787 11454 c4 -11 9 -12 16 -5 13 13 54 14 59 2 2 -5 12 -3 22 5 18
13 14 14 -42 14 -52 0 -60 -2 -55 -16z"/>
<path d="M2944 11461 c7 -10 61 -9 72 2 4 4 -12 7 -35 7 -23 0 -40 -4 -37 -9z"/>
<path d="M3065 11460 c4 -6 -1 -23 -10 -37 -21 -31 -38 -86 -24 -78 11 8 11 3
-1 -29 -8 -21 -7 -26 6 -26 8 0 23 7 32 16 15 15 14 16 -5 10 -18 -6 -20 -4
-16 14 8 29 22 35 38 14 13 -18 14 -17 12 11 -2 25 2 30 28 36 23 5 25 7 8 8
-13 0 -23 5 -23 10 0 15 119 21 441 21 181 0 319 4 319 9 0 5 -164 8 -385 7
-212 -2 -385 1 -385 5 0 3 309 7 688 7 378 0 671 -3 652 -7 -51 -9 -26 -17 61
-20 47 -2 79 2 83 8 4 6 1 12 -6 13 -7 1 28 5 77 8 50 3 -289 7 -753 8 -584 1
-841 -1 -837 -8z m1478 -7 c-7 -2 -19 -2 -25 0 -7 3 -2 5 12 5 14 0 19 -2 13
-5z m-1455 -38 c-1 -27 -6 -35 -19 -35 -12 0 -16 5 -13 15 4 8 10 15 15 15 5
0 9 9 9 20 0 11 2 20 5 20 2 0 4 -16 3 -35z"/>
<path d="M4792 11465 c3 -3 543 -5 1201 -5 l1196 0 11 -21 c7 -11 14 -18 17
-15 3 3 1 12 -5 19 -7 8 -9 17 -5 20 3 4 -540 7 -1207 7 -667 0 -1211 -2
-1208 -5z"/>
<path d="M7495 11460 c37 -8 179 -69 173 -75 -2 -2 -66 -6 -143 -9 -77 -3
-143 -5 -147 -6 -12 0 -9 -30 2 -30 6 0 10 6 10 13 0 9 2 9 8 0 4 -7 19 -16
32 -21 l25 -10 -25 -5 c-14 -3 -41 -8 -62 -12 l-36 -6 34 -36 c19 -20 34 -40
34 -44 0 -5 7 -9 15 -9 14 0 19 -11 16 -37 -1 -6 4 -15 10 -19 8 -5 10 -2 5 7
-4 8 6 -1 24 -19 22 -24 36 -32 48 -26 9 4 22 8 27 9 49 6 104 20 125 30 29
15 188 24 208 12 22 -15 53 -88 55 -130 2 -36 7 -45 36 -62 47 -28 51 -45 9
-46 -18 0 -60 -6 -93 -13 l-60 -13 40 -7 c82 -14 95 -18 95 -27 0 -5 -17 -8
-37 -7 -21 1 -71 -4 -110 -12 -60 -11 -70 -15 -57 -25 14 -10 14 -15 4 -34 -9
-18 -9 -26 1 -35 9 -8 10 -8 5 1 -3 6 -3 19 0 28 6 14 12 11 37 -16 16 -19 31
-43 32 -54 4 -34 5 -35 16 -35 8 0 8 5 -1 15 -9 10 -9 15 -1 15 6 0 11 10 11
21 0 17 3 19 13 10 8 -6 24 -8 38 -6 13 3 88 8 166 12 129 6 145 4 163 -12 11
-10 20 -22 20 -28 0 -5 19 -28 41 -51 43 -42 89 -108 89 -126 0 -5 -8 -10 -17
-11 -34 0 -156 -44 -161 -57 -2 -7 5 -12 17 -12 30 0 26 -14 -9 -27 -17 -6
-28 -7 -24 -2 8 13 -3 11 -37 -7 -29 -14 -30 -17 -15 -33 9 -10 13 -21 9 -25
-4 -4 1 -4 11 0 12 4 17 4 13 -2 -3 -5 17 -34 44 -64 42 -46 49 -51 47 -30 -3
23 1 25 132 51 84 18 154 38 187 55 62 33 73 29 156 -50 46 -44 88 -111 76
-120 -2 -1 -56 -22 -119 -46 -63 -24 -135 -53 -160 -64 -25 -11 -58 -23 -74
-26 l-29 -5 42 -40 c22 -22 39 -46 36 -52 -2 -7 -1 -12 3 -12 20 3 31 -3 37
-20 4 -15 14 -19 40 -18 20 1 35 7 35 15 0 11 45 17 110 13 34 -3 210 46 226
62 15 15 50 6 63 -15 35 -55 55 -106 61 -152 5 -47 7 -50 45 -63 22 -8 49 -20
60 -29 19 -14 16 -18 -77 -111 -54 -52 -95 -99 -92 -104 3 -5 -1 -7 -8 -4 -7
2 -21 -2 -32 -10 -17 -13 -17 -16 15 -54 35 -44 49 -51 49 -23 0 13 2 14 9 3
5 -7 14 -10 20 -7 6 4 11 3 11 -3 0 -5 -9 -11 -20 -13 -15 -2 -17 -7 -10 -18
7 -10 12 -12 18 -4 7 11 75 37 102 40 24 2 93 40 123 68 l28 26 71 -15 c39 -8
94 -27 122 -41 90 -47 160 -104 128 -104 -20 0 -178 -169 -195 -209 -6 -14
-14 -28 -17 -31 -3 -3 -11 -18 -18 -35 -13 -28 -12 -31 37 -78 28 -27 54 -46
59 -43 5 3 23 -9 40 -27 l31 -32 -71 -75 c-98 -103 -275 -287 -577 -600 -141
-146 -310 -321 -376 -389 -66 -69 -197 -204 -291 -301 -185 -189 -326 -337
-419 -440 -33 -36 -139 -146 -235 -245 -97 -99 -270 -277 -386 -395 -519 -533
-502 -517 -534 -512 -17 2 -30 0 -30 -5 0 -6 11 -8 25 -5 33 6 32 -1 -6 -36
-26 -24 -47 -32 -108 -42 -42 -6 -113 -20 -157 -31 -91 -21 -118 -24 -95 -10
11 7 10 11 -5 20 -17 11 -16 12 9 6 18 -3 26 -2 25 6 -2 7 21 18 55 27 32 8
56 17 53 19 -3 3 -38 -2 -78 -12 -78 -19 -199 -67 -347 -139 -62 -30 -91 -39
-91 -30 0 8 8 14 18 14 16 1 16 1 0 14 -10 7 -18 16 -18 20 0 11 -27 36 -33
30 -7 -8 -47 28 -47 42 0 7 -7 14 -15 18 -8 3 -15 1 -15 -5 0 -6 -7 -6 -19 1
-27 14 -51 12 -26 -2 11 -6 26 -19 32 -27 11 -14 14 -14 23 -1 9 12 10 11 5
-7 -3 -13 1 -36 11 -55 9 -18 20 -48 24 -65 7 -29 4 -35 -28 -60 -19 -16 -49
-40 -66 -54 -17 -14 -60 -47 -95 -74 -81 -61 -289 -268 -361 -358 -64 -80
-180 -245 -180 -256 0 -4 -8 -16 -18 -27 -9 -10 -41 -55 -71 -99 -30 -44 -81
-116 -114 -160 -116 -153 -208 -301 -300 -483 -70 -139 -96 -182 -110 -182
-12 0 -17 -5 -14 -14 12 -30 -73 -216 -99 -216 -7 0 -14 -5 -16 -10 -2 -7 -14
-6 -34 1 -29 11 -65 55 -91 109 -7 15 -12 19 -13 10 0 -8 -9 1 -20 20 -11 19
-19 31 -20 25 -1 -17 -57 87 -74 138 -9 26 -18 66 -21 90 -3 23 -10 69 -15
102 -5 33 -9 76 -9 95 l2 35 8 -35 c4 -19 5 25 2 100 -3 85 -11 145 -19 162
-8 15 -14 38 -14 51 0 28 -17 47 -43 47 -14 0 -17 -5 -12 -22 4 -13 9 -31 11
-40 11 -37 -39 -309 -71 -388 -7 -19 -16 -57 -19 -85 -2 -27 -10 -81 -16 -119
l-12 -68 -24 28 c-24 29 -32 74 -14 74 14 0 12 47 -2 54 -10 5 -10 7 0 12 18
8 15 24 -5 24 -17 1 -17 2 1 15 13 10 17 23 14 44 -2 16 -1 28 4 25 4 -3 8 4
8 15 0 23 -16 28 -23 9 -2 -7 -7 -10 -11 -6 -4 3 -2 16 4 28 10 18 9 22 -2 18
-10 -3 -235 -434 -250 -479 -3 -9 -48 -22 -48 -15 0 2 -6 39 -14 82 -8 44 -18
106 -21 139 -6 55 -35 230 -54 315 -14 69 -50 -172 -55 -375 -3 -120 -13 -240
-30 -359 -35 -238 -35 -338 0 -488 22 -91 32 -118 45 -118 9 0 55 -25 104 -55
48 -30 89 -55 92 -55 13 0 116 -86 157 -131 69 -76 71 -81 90 -209 49 -324 95
-474 168 -556 19 -21 19 -22 -36 -100 -109 -156 -136 -219 -152 -356 -4 -35
-11 -55 -17 -51 -6 3 -7 1 -3 -5 10 -16 -4 -103 -15 -96 -5 3 -6 -2 -3 -10 7
-20 12 -20 -66 5 -105 33 -291 156 -365 241 -20 24 -47 63 -60 88 l-24 45 -1
-122 c0 -112 -2 -123 -20 -133 -11 -6 -20 -21 -20 -34 0 -13 -7 -27 -17 -30
-23 -9 -163 5 -163 16 0 5 -5 6 -10 3 -5 -3 -10 -2 -10 2 0 5 -9 14 -21 21
-15 10 -24 10 -34 2 -8 -6 -52 -12 -98 -13 -58 -1 -90 -7 -102 -17 -10 -8 -30
-15 -46 -16 -15 -1 -43 -4 -62 -8 -20 -4 -39 -1 -50 6 -19 15 -37 -5 337 382
202 210 221 231 218 260 -5 45 -32 87 -77 117 -48 33 -32 44 -220 -151 -519
-540 -599 -614 -621 -579 -10 16 -53 9 -64 -10 -23 -43 -40 -51 -110 -51 -60
0 -73 3 -102 28 -18 15 -35 30 -36 35 -2 4 -9 4 -15 0 -6 -4 -8 0 -4 10 3 9
-1 18 -9 21 -28 11 -37 7 -24 -9 19 -23 6 -28 -46 -17 -26 6 -53 8 -59 5 -7
-2 -29 3 -49 11 -33 14 -36 13 -45 -2 -8 -13 -22 -17 -66 -15 -41 1 -58 -2
-62 -13 -5 -15 -35 -20 -31 -5 2 5 -12 25 -30 45 -34 38 -78 49 -88 21 -4 -8
-11 -15 -17 -15 -6 0 -18 -6 -26 -14 -21 -19 -93 -25 -99 -8 -2 6 1 12 7 12
20 0 11 15 -16 28 -37 17 -44 15 -72 -14 -23 -23 -30 -25 -77 -19 -49 6 -54 4
-70 -19 -11 -18 -25 -26 -45 -26 -16 0 -29 5 -29 10 0 6 -12 10 -28 10 -16 0
-32 8 -40 20 -9 15 -17 18 -34 11 -47 -18 -95 -31 -111 -31 -10 0 -25 -4 -35
-9 -35 -17 -82 -29 -82 -20 0 5 5 9 10 9 6 0 10 4 10 8 0 16 -51 5 -82 -18
-27 -20 -34 -21 -52 -10 -13 8 -46 12 -91 10 -68 -3 -109 -3 -209 0 -38 1 -51
-3 -62 -19 -11 -15 -22 -18 -53 -14 -26 4 -56 -1 -86 -13 l-47 -19 7 -90 c3
-49 12 -148 20 -220 7 -71 16 -177 19 -235 4 -96 4 -99 -5 -35 -21 158 -40
327 -49 445 -24 281 -28 209 -29 -492 l-1 -718 3378 1 c1857 1 3364 4 3348 8
-16 3 -31 12 -34 20 -3 8 0 11 6 7 6 -3 12 -3 14 2 1 4 30 20 63 34 33 14 59
31 57 38 -2 8 5 11 18 7 13 -3 28 1 39 12 13 13 47 21 120 29 106 12 129 20
162 53 10 10 23 19 28 19 13 0 21 53 9 68 -7 8 -7 16 1 25 14 17 15 197 1 197
-10 0 -60 51 -60 60 0 6 11 10 25 10 16 0 25 6 25 15 0 14 -12 20 -33 16 -5
-1 -5 4 -1 10 3 6 3 14 -2 18 -18 13 -54 71 -54 87 0 14 -3 14 -15 4 -9 -7
-19 -10 -22 -6 -4 4 -1 11 6 15 9 6 5 10 -14 15 -30 8 -47 -1 -26 -13 9 -6 10
-11 2 -15 -6 -4 -11 -4 -11 -1 0 4 -18 -7 -39 -24 -21 -17 -44 -31 -50 -31
-26 0 -43 -84 -18 -93 8 -3 9 -8 2 -14 -6 -6 -22 -4 -44 7 -21 11 -30 20 -23
24 7 4 12 1 13 -6 1 -22 18 25 18 53 1 15 8 32 16 39 12 10 13 16 4 26 -25 31
-58 0 -43 -40 5 -12 2 -15 -10 -10 -10 4 -18 24 -22 56 -5 33 -10 45 -15 36
-15 -22 -10 27 8 92 9 33 20 60 24 60 5 0 6 7 3 15 -4 8 1 33 9 54 15 37 58
209 71 282 10 57 36 340 36 391 0 31 11 70 31 115 17 37 39 86 49 108 10 23
23 60 30 83 7 29 19 46 36 54 26 12 34 52 12 61 -10 4 -10 6 -1 6 7 1 16 19
19 41 4 22 10 40 15 40 4 0 6 9 4 21 -2 11 0 28 5 37 5 9 13 154 17 322 7 242
6 319 -5 370 -7 36 -20 99 -29 140 -9 47 -18 171 -23 328 -5 139 -11 264 -14
276 -3 13 -10 52 -15 87 -6 35 -26 156 -45 269 -19 112 -34 205 -32 207 6 7
36 -118 56 -237 12 -69 26 -138 31 -155 22 -76 49 -359 49 -513 0 -117 4 -172
14 -196 8 -19 19 -66 25 -106 7 -40 16 -81 21 -91 6 -10 10 -28 11 -41 0 -15
3 -18 6 -8 3 8 14 22 23 32 16 17 16 17 13 -9 -3 -16 3 -37 11 -48 13 -17 15
-18 16 -3 0 9 -4 20 -10 23 -15 10 -12 28 4 22 11 -4 17 8 26 45 14 66 50 292
54 339 2 20 6 42 11 48 4 7 0 20 -8 29 -40 44 -147 312 -147 367 0 13 -11 59
-25 102 -31 101 -113 436 -121 499 -4 27 -11 54 -16 61 -9 11 -6 46 8 96 3 9
10 15 15 12 5 -4 9 4 9 17 0 32 15 54 25 38 4 -7 1 -16 -6 -21 -11 -6 -9 -9 8
-9 13 0 32 13 47 32 24 31 26 32 39 14 24 -33 30 -2 30 151 1 78 3 143 5 143
3 0 13 -10 23 -22 13 -14 19 -17 20 -7 0 8 4 6 9 -6 8 -19 9 -19 9 3 1 12 -3
22 -9 22 -5 0 -10 5 -10 10 0 19 19 10 25 -12 11 -36 57 -81 67 -66 11 18 10
39 -1 36 -6 -2 -34 23 -65 55 -30 31 -51 57 -48 58 4 0 -3 4 -15 9 -13 5 -23
14 -23 20 0 6 6 8 13 4 6 -4 9 -4 5 0 -50 56 -93 110 -91 115 2 8 -38 74 -51
83 -6 4 -21 8 -33 8 -26 0 -37 29 -29 74 8 42 36 68 107 99 31 13 64 32 75 40
10 9 49 38 85 64 86 62 229 182 229 193 0 11 -63 59 -132 100 -59 35 -76 56
-35 45 18 -5 19 -4 6 4 -9 6 -33 27 -52 46 -19 19 -41 35 -49 35 -7 0 2 -9 21
-21 18 -11 32 -22 30 -24 -2 -2 -27 3 -55 10 -61 16 -211 35 -274 35 -43 0
-47 -2 -185 -137 -203 -200 -362 -342 -340 -308 24 39 39 52 -204 -189 -116
-114 -211 -204 -211 -199 0 18 175 220 299 344 152 153 270 262 371 341 120
95 291 261 435 423 73 83 177 193 229 245 53 52 96 100 96 107 0 7 4 13 8 13
4 0 59 60 122 132 63 73 206 223 316 333 111 110 243 247 294 305 132 149 220
242 220 231 0 -5 -7 -14 -15 -21 -8 -7 -15 -18 -15 -24 0 -11 -119 -166 -154
-201 -219 -224 -599 -623 -681 -716 -99 -112 643 648 1230 1261 61 63 253 261
426 440 174 179 359 370 412 425 88 91 98 99 117 88 36 -23 27 -30 151 108 42
46 86 95 96 108 17 21 30 24 114 29 l95 5 22 -53 c12 -29 22 -63 22 -76 0 -13
8 -31 19 -41 25 -24 51 -77 51 -104 0 -12 -17 -42 -38 -68 -48 -58 -100 -134
-104 -152 -2 -8 -7 -18 -13 -22 -6 -6 -6 -10 3 -14 6 -2 12 -13 12 -24 0 -10
6 -19 13 -19 8 0 7 -4 -3 -10 -8 -5 -19 -10 -25 -10 -5 0 -3 5 5 10 8 5 10 10
5 10 -6 0 -18 -9 -27 -19 -15 -18 -14 -21 21 -55 35 -34 56 -40 45 -12 -3 8 8
10 36 8 45 -5 50 -16 18 -49 -12 -13 -17 -23 -12 -23 13 0 121 113 171 180 23
30 56 71 73 90 l32 35 26 -31 c15 -17 35 -41 44 -52 10 -12 29 -22 42 -22 41
0 120 -47 171 -101 46 -49 47 -52 42 -99 -3 -27 -11 -57 -16 -67 -9 -16 -51
-148 -51 -160 0 -3 6 -1 13 6 11 8 16 3 27 -23 8 -21 18 -32 26 -29 10 4 12
-4 7 -31 -5 -35 -5 -36 25 -36 17 0 37 6 45 14 11 11 17 12 26 3 8 -8 11 0 11
34 0 28 3 39 9 31 11 -18 21 7 21 53 0 19 6 40 14 47 8 8 26 38 40 66 15 29
31 52 37 52 12 0 97 -43 123 -63 17 -13 18 -19 8 -58 -17 -68 -40 -166 -60
-262 l-20 -88 26 -17 c19 -12 27 -13 30 -4 2 6 8 12 14 12 17 0 38 28 38 52 0
19 2 20 10 8 8 -13 11 -11 16 8 4 12 10 22 15 22 12 0 11 -12 -5 -51 -8 -19
-16 -52 -19 -74 -3 -22 -9 -48 -12 -57 -5 -13 1 -18 29 -23 38 -8 60 0 53 20
-3 6 5 43 18 81 12 38 25 87 28 109 14 104 44 164 60 123 3 -7 6 301 6 684 1
548 -2 697 -11 701 -10 4 -10 6 0 6 22 2 13 39 -10 44 l-23 4 23 2 c15 1 22 7
22 22 0 18 -4 20 -31 14 -22 -5 -29 -4 -25 4 4 6 18 11 32 11 20 0 24 5 24 31
0 28 -3 31 -22 25 -54 -15 -78 -14 -30 2 41 13 52 21 52 38 0 20 -3 21 -37 13
-21 -5 -51 -12 -68 -14 -28 -5 -29 -5 -5 4 14 6 44 15 68 21 25 6 42 17 42 25
0 19 -2 19 -80 -5 -74 -23 -78 -23 -65 -11 6 4 40 16 78 26 l67 18 0 64 c0 75
9 73 -123 17 -80 -34 -123 -45 -77 -19 14 7 64 28 113 46 80 31 87 35 87 61
l0 27 -119 -50 c-124 -51 -145 -57 -139 -38 3 10 228 109 248 109 5 0 10 9 10
20 0 23 10 27 -168 -55 -57 -26 -105 -45 -108 -42 -2 2 59 33 136 68 119 55
140 67 140 87 0 12 -1 22 -3 22 -2 0 -68 -34 -148 -75 -79 -41 -147 -74 -152
-72 -4 1 62 38 148 82 l155 80 0 303 c0 181 -4 301 -9 298 -5 -4 -24 6 -41 21
-27 22 -31 32 -27 59 6 35 60 117 71 107 3 -3 6 45 5 108 0 68 -4 106 -8 94
-5 -11 -6 -23 -4 -28 2 -4 0 -6 -5 -5 -15 4 -59 -51 -85 -104 -12 -26 -28 -50
-35 -53 -8 -3 -27 9 -43 26 -45 48 -251 199 -262 192 -6 -3 -7 -2 -4 4 5 9
-139 113 -156 113 -3 0 -41 23 -84 51 -43 28 -110 72 -150 98 -39 25 -72 51
-72 57 -2 25 237 83 574 138 78 13 73 14 -171 15 -206 1 -257 -2 -280 -14 -16
-8 -39 -15 -52 -15 -13 0 -55 -7 -94 -16 -69 -16 -71 -16 -91 5 l-21 20 25 10
c16 6 -498 10 -1486 9 -830 0 -1492 -4 -1470 -8z m62 -96 c-3 -3 -12 -4 -19
-1 -8 3 -5 6 6 6 11 1 17 -2 13 -5z m2240 -176 c-3 -7 -5 -2 -5 12 0 14 2 19
5 13 2 -7 2 -19 0 -25z m50 -50 c-2 -13 -4 -5 -4 17 -1 22 1 32 4 23 2 -10 2
-28 0 -40z m200 -5 c-3 -10 -5 -2 -5 17 0 19 2 27 5 18 2 -10 2 -26 0 -35z
m258 27 c3 -5 1 -10 -4 -10 -6 0 -11 5 -11 10 0 6 2 10 4 10 3 0 8 -4 11 -10z
m-134 -56 c-5 -16 -10 -21 -10 -12 -1 18 10 51 15 45 2 -1 -1 -16 -5 -33z
m-384 -81 c-2 -21 -4 -4 -4 37 0 41 2 58 4 38 2 -21 2 -55 0 -75z m320 65 c-3
-7 -5 -2 -5 12 0 14 2 19 5 13 2 -7 2 -19 0 -25z m110 -5 c-3 -10 -5 -4 -5 12
0 17 2 24 5 18 2 -7 2 -21 0 -30z m-180 -25 c-3 -7 -5 -2 -5 12 0 14 2 19 5
13 2 -7 2 -19 0 -25z m218 -18 c-4 -23 -9 -39 -11 -37 -3 2 -2 23 2 46 4 23 9
40 11 37 3 -3 2 -23 -2 -46z m-278 -7 c-3 -10 -5 -2 -5 17 0 19 2 27 5 18 2
-10 2 -26 0 -35z m228 -28 c-4 -25 -9 -44 -12 -41 -2 2 -1 25 2 51 4 25 9 44
12 41 2 -2 1 -25 -2 -51z m-110 -10 c-3 -26 -8 -45 -11 -43 -2 3 -1 26 2 52 4
25 9 44 12 42 2 -3 1 -26 -3 -51z m62 23 c-3 -7 -5 -2 -5 12 0 14 2 19 5 13 2
-7 2 -19 0 -25z m-320 -40 c-2 -13 -4 -3 -4 22 0 25 2 35 4 23 2 -13 2 -33 0
-45z m448 -13 c-4 -25 -9 -44 -12 -41 -2 2 -1 25 2 51 4 25 9 44 12 41 2 -2 1
-25 -2 -51z m32 13 c-3 -7 -5 -2 -5 12 0 14 2 19 5 13 2 -7 2 -19 0 -25z m40
0 c-3 -7 -5 -2 -5 12 0 14 2 19 5 13 2 -7 2 -19 0 -25z m-210 -15 c-3 -10 -5
-4 -5 12 0 17 2 24 5 18 2 -7 2 -21 0 -30z m-240 -25 c-2 -13 -4 -5 -4 17 -1
22 1 32 4 23 2 -10 2 -28 0 -40z m330 20 c-3 -8 -6 -5 -6 6 -1 11 2 17 5 13 3
-3 4 -12 1 -19z m140 -10 c-3 -8 -6 -5 -6 6 -1 11 2 17 5 13 3 -3 4 -12 1 -19z
m-70 -20 c-3 -7 -5 -2 -5 12 0 14 2 19 5 13 2 -7 2 -19 0 -25z m-530 -130 c-2
-29 -3 -6 -3 52 0 58 1 81 3 53 2 -29 2 -77 0 -105z m410 105 c-3 -10 -5 -2
-5 17 0 19 2 27 5 18 2 -10 2 -26 0 -35z m-50 0 c-3 -10 -5 -4 -5 12 0 17 2
24 5 18 2 -7 2 -21 0 -30z m78 -68 c-10 -52 -20 -93 -23 -91 -2 3 4 48 14 100
10 53 20 94 22 91 3 -2 -3 -47 -13 -100z m122 58 c-3 -10 -5 -4 -5 12 0 17 2
24 5 18 2 -7 2 -21 0 -30z m12 -72 c-13 -55 -25 -99 -27 -96 -2 2 6 49 18 105
13 55 25 98 27 96 3 -2 -6 -49 -18 -105z m30 -75 c-24 -96 -45 -173 -48 -171
-2 3 15 84 39 180 24 96 46 173 48 170 2 -2 -15 -83 -39 -179z m-362 117 c-3
-10 -5 -2 -5 17 0 19 2 27 5 18 2 -10 2 -26 0 -35z m60 0 c-3 -10 -5 -2 -5 17
0 19 2 27 5 18 2 -10 2 -26 0 -35z m190 25 c-3 -8 -6 -5 -6 6 -1 11 2 17 5 13
3 -3 4 -12 1 -19z m23 -53 c-7 -36 -15 -64 -17 -61 -3 3 0 34 8 70 7 36 15 64
17 61 2 -2 -1 -34 -8 -70z m-463 -7 c-2 -13 -4 -3 -4 22 0 25 2 35 4 23 2 -13
2 -33 0 -45z m130 -10 c-2 -13 -4 -3 -4 22 0 25 2 35 4 23 2 -13 2 -33 0 -45z
m223 37 c0 -14 -4 -25 -9 -25 -4 0 -6 11 -3 25 2 14 6 25 8 25 2 0 4 -11 4
-25z m270 -65 c-13 -44 -25 -78 -27 -76 -3 2 6 40 18 85 12 45 24 79 27 76 3
-2 -6 -40 -18 -85z m-553 33 c-3 -10 -5 -2 -5 17 0 19 2 27 5 18 2 -10 2 -26
0 -35z m230 10 c-3 -10 -5 -4 -5 12 0 17 2 24 5 18 2 -7 2 -21 0 -30z m130 5
c-3 -7 -5 -2 -5 12 0 14 2 19 5 13 2 -7 2 -19 0 -25z m55 -70 c-11 -46 -23
-102 -27 -125 -4 -24 -10 -45 -14 -48 -4 -2 0 33 10 78 10 45 23 109 30 142 7
33 14 54 16 48 2 -6 -5 -49 -15 -95z m226 74 c-1 -5 -28 -82 -58 -171 -30 -89
-56 -157 -59 -150 -5 16 101 329 112 329 5 0 7 -4 5 -8z m-473 -77 c-4 -36
-10 -64 -12 -61 -3 2 -2 34 2 71 4 36 10 64 12 61 3 -2 2 -34 -2 -71z m-58 3
c-2 -13 -4 -3 -4 22 0 25 2 35 4 23 2 -13 2 -33 0 -45z m152 -27 c-7 -39 -14
-69 -17 -67 -2 3 1 37 8 76 7 39 14 69 16 67 3 -2 -1 -36 -7 -76z m75 -15 c-9
-48 -19 -85 -21 -82 -2 2 3 41 11 86 9 45 16 85 16 88 0 3 3 3 6 0 3 -4 -2
-45 -12 -92z m-119 24 c-4 -28 -9 -49 -12 -47 -2 3 -1 28 3 56 4 28 9 50 11
47 3 -3 2 -28 -2 -56z m430 -110 c-32 -88 -62 -160 -66 -160 -5 0 9 48 30 108
60 166 84 223 89 218 2 -3 -22 -77 -53 -166z m-598 103 c-3 -10 -5 -4 -5 12 0
17 2 24 5 18 2 -7 2 -21 0 -30z m632 -119 c-56 -142 -68 -168 -75 -161 -4 3
39 115 114 296 3 8 7 10 9 4 2 -5 -19 -68 -48 -139z m-312 114 c-3 -8 -6 -5
-6 6 -1 11 2 17 5 13 3 -3 4 -12 1 -19z m-380 -30 c-3 -7 -5 -2 -5 12 0 14 2
19 5 13 2 -7 2 -19 0 -25z m110 -15 c-3 -10 -5 -4 -5 12 0 17 2 24 5 18 2 -7
2 -21 0 -30z m190 5 c-3 -7 -5 -2 -5 12 0 14 2 19 5 13 2 -7 2 -19 0 -25z m70
-10 c-3 -7 -5 -2 -5 12 0 14 2 19 5 13 2 -7 2 -19 0 -25z m57 -22 c-3 -21 -8
-35 -11 -32 -2 2 -1 20 3 40 3 21 8 35 11 32 2 -2 1 -20 -3 -40z m315 -103
c-72 -157 -67 -148 -74 -141 -3 3 17 54 46 114 28 60 58 124 66 143 8 18 17
30 20 27 3 -3 -23 -68 -58 -143z m-213 110 c-19 -77 -28 -105 -32 -100 -6 6
26 127 33 127 3 0 2 -12 -1 -27z m-319 -5 c-3 -8 -6 -5 -6 6 -1 11 2 17 5 13
3 -3 4 -12 1 -19z m80 -20 c-3 -7 -5 -2 -5 12 0 14 2 19 5 13 2 -7 2 -19 0
-25z m70 0 c-3 -8 -6 -5 -6 6 -1 11 2 17 5 13 3 -3 4 -12 1 -19z m438 -132
c-36 -75 -71 -136 -76 -136 -6 0 22 63 62 140 39 77 74 138 77 136 2 -3 -26
-66 -63 -140z m-393 72 c-8 -8 -9 -4 -5 13 4 13 8 18 11 10 2 -7 -1 -18 -6
-23z m504 -5 c-13 -35 -138 -244 -143 -239 -6 5 5 26 79 154 57 95 79 126 64
85z m52 -62 c-56 -93 -143 -220 -146 -212 -4 11 150 251 161 251 5 0 -2 -17
-15 -39z m-1041 -68 c-2 -16 -4 -3 -4 27 0 30 2 43 4 28 2 -16 2 -40 0 -55z
m1077 30 c-49 -77 -147 -214 -151 -210 -2 3 33 60 78 126 45 67 84 120 86 117
3 -2 -3 -17 -13 -33z m-1127 -125 c-2 -29 -3 -6 -3 52 0 58 1 81 3 53 2 -29 2
-77 0 -105z m1190 119 c-8 -22 -168 -232 -179 -236 -14 -5 -6 8 91 137 79 106
100 129 88 99z m-1080 -59 c-2 -13 -4 -5 -4 17 -1 22 1 32 4 23 2 -10 2 -28 0
-40z m100 0 c-2 -13 -4 -5 -4 17 -1 22 1 32 4 23 2 -10 2 -28 0 -40z m50 5
c-3 -10 -5 -4 -5 12 0 17 2 24 5 18 2 -7 2 -21 0 -30z m883 -98 c-51 -63 -96
-115 -102 -115 -5 0 9 24 32 53 23 28 67 84 98 124 32 39 59 67 60 62 2 -5
-38 -61 -88 -124z m-983 88 c-3 -10 -5 -4 -5 12 0 17 2 24 5 18 2 -7 2 -21 0
-30z m140 -5 c-3 -7 -5 -2 -5 12 0 14 2 19 5 13 2 -7 2 -19 0 -25z m40 -20
c-3 -7 -5 -2 -5 12 0 14 2 19 5 13 2 -7 2 -19 0 -25z m926 20 c-48 -65 -187
-227 -191 -224 -6 6 180 235 192 235 5 1 4 -5 -1 -11z m-896 -20 c-3 -8 -6 -5
-6 6 -1 11 2 17 5 13 3 -3 4 -12 1 -19z m922 -5 c-7 -10 -38 -45 -69 -78 -31
-33 -71 -79 -90 -102 -18 -24 -38 -43 -43 -43 -10 0 43 66 138 168 62 67 95
95 64 55z m-1192 -75 c-2 -18 -4 -6 -4 27 0 33 2 48 4 33 2 -15 2 -42 0 -60z
m50 10 c-2 -13 -4 -3 -4 22 0 25 2 35 4 23 2 -13 2 -33 0 -45z m50 15 c-3 -10
-5 -2 -5 17 0 19 2 27 5 18 2 -10 2 -26 0 -35z m48 -18 c-4 -31 -9 -54 -12
-51 -3 2 -1 30 2 61 4 31 9 54 12 51 3 -2 1 -30 -2 -61z m42 28 c-3 -10 -5 -4
-5 12 0 17 2 24 5 18 2 -7 2 -21 0 -30z m110 15 c-3 -8 -6 -5 -6 6 -1 11 2 17
5 13 3 -3 4 -12 1 -19z m30 0 c-3 -8 -6 -5 -6 6 -1 11 2 17 5 13 3 -3 4 -12 1
-19z m-100 -20 c-3 -7 -5 -2 -5 12 0 14 2 19 5 13 2 -7 2 -19 0 -25z m30 0
c-3 -7 -5 -2 -5 12 0 14 2 19 5 13 2 -7 2 -19 0 -25z m943 -15 c-70 -78 -182
-193 -187 -193 -6 0 45 58 143 163 79 83 114 107 44 30z m-1263 -60 c-2 -21
-4 -6 -4 32 0 39 2 55 4 38 2 -18 2 -50 0 -70z m1271 1 c-46 -47 -100 -104
-120 -127 -21 -22 -40 -38 -43 -36 -6 7 224 249 237 249 5 0 -28 -39 -74 -86z
m-921 44 c-3 -7 -5 -2 -5 12 0 14 2 19 5 13 2 -7 2 -19 0 -25z m30 -10 c-3 -7
-5 -2 -5 12 0 14 2 19 5 13 2 -7 2 -19 0 -25z m-140 -15 c-3 -10 -5 -4 -5 12
0 17 2 24 5 18 2 -7 2 -21 0 -30z m68 -18 c-4 -25 -9 -44 -12 -41 -2 2 -1 25
2 51 4 25 9 44 12 41 2 -2 1 -25 -2 -51z m95 -9 c-6 -31 -15 -58 -19 -60 -3
-3 0 24 8 59 18 78 27 79 11 1z m60 27 c-11 -17 -11 -17 -6 0 3 10 6 24 7 30
0 9 2 9 5 0 3 -7 0 -20 -6 -30z m-183 -5 c-3 -7 -5 -2 -5 12 0 14 2 19 5 13 2
-7 2 -19 0 -25z m150 10 c-3 -8 -6 -5 -6 6 -1 11 2 17 5 13 3 -3 4 -12 1 -19z
m128 5 c-4 -10 -52 -153 -106 -318 -55 -165 -116 -346 -136 -402 -35 -103 -59
-127 -49 -49 l6 41 -16 -50 c-9 -27 -19 -44 -21 -37 -7 19 48 293 57 287 4 -2
5 6 3 19 -3 15 1 25 12 30 14 5 16 2 12 -16 -3 -13 -8 -41 -11 -63 -5 -37 -4
-35 13 15 25 73 25 53 1 -40 -11 -41 -19 -82 -19 -90 1 -17 5 -4 44 123 15 48
32 87 37 87 6 0 8 13 4 33 -3 19 -3 27 3 19 9 -14 36 58 111 296 23 72 47 132
52 132 6 0 7 -8 3 -17z m825 11 c0 -10 -233 -234 -239 -228 -5 5 223 234 234
234 3 0 5 -3 5 -6z m-1433 -126 c-2 -24 -4 -5 -4 42 0 47 2 66 4 43 2 -24 2
-62 0 -85z m200 70 c-2 -13 -4 -5 -4 17 -1 22 1 32 4 23 2 -10 2 -28 0 -40z
m-50 -10 c-2 -13 -4 -5 -4 17 -1 22 1 32 4 23 2 -10 2 -28 0 -40z m240 10 c-3
-7 -5 -2 -5 12 0 14 2 19 5 13 2 -7 2 -19 0 -25z m30 10 c-3 -8 -6 -5 -6 6 -1
11 2 17 5 13 3 -3 4 -12 1 -19z m130 0 c-3 -8 -6 -5 -6 6 -1 11 2 17 5 13 3
-3 4 -12 1 -19z m104 -6 c-6 -12 -11 -27 -11 -34 1 -7 8 0 16 15 9 16 17 27
20 25 4 -4 -85 -232 -167 -427 -65 -158 -27 -89 86 154 94 202 125 263 125
244 0 -6 -111 -250 -189 -412 -28 -60 -51 -111 -51 -113 0 -12 -110 -233 -119
-239 -11 -6 65 219 94 282 8 17 15 35 15 39 0 9 45 135 61 169 5 11 29 76 53
145 59 167 66 184 72 177 3 -3 1 -14 -5 -25z m684 -97 c-66 -63 -124 -114
-130 -114 -5 0 46 53 115 119 68 65 127 116 130 113 3 -2 -49 -56 -115 -118z
m-1020 50 c-4 -25 -9 -44 -12 -41 -2 2 -1 25 2 51 4 25 9 44 12 41 2 -2 1 -25
-2 -51z m152 33 c-3 -8 -6 -5 -6 6 -1 11 2 17 5 13 3 -3 4 -12 1 -19z m1002
-4 c-40 -44 -242 -218 -238 -206 4 11 249 231 258 232 3 0 -6 -12 -20 -26z
m-1233 -61 c-4 -43 -11 -94 -16 -113 -9 -31 -9 -29 -4 15 2 28 7 78 11 113 3
34 8 62 11 62 2 0 1 -35 -2 -77z m28 -39 c-9 -60 -21 -113 -26 -119 -7 -7 -8
-3 -4 10 6 21 36 203 36 219 0 5 2 7 5 4 3 -3 -2 -54 -11 -114z m233 94 c-3
-8 -6 -5 -6 6 -1 11 2 17 5 13 3 -3 4 -12 1 -19z m-400 -50 c-2 -13 -4 -3 -4
22 0 25 2 35 4 23 2 -13 2 -33 0 -45z m310 40 c-3 -8 -6 -5 -6 6 -1 11 2 17 5
13 3 -3 4 -12 1 -19z m123 -28 c-6 -23 -13 -40 -15 -38 -2 2 1 23 7 46 6 24
13 41 15 38 2 -2 -1 -23 -7 -46z m-156 -4 c-3 -21 -8 -35 -11 -32 -2 2 -1 20
3 40 3 21 8 35 11 32 2 -2 1 -20 -3 -40z m-187 -28 c-2 -13 -4 -3 -4 22 0 25
2 35 4 23 2 -13 2 -33 0 -45z m270 40 c-3 -8 -6 -5 -6 6 -1 11 2 17 5 13 3 -3
4 -12 1 -19z m1063 17 c0 -8 -264 -214 -269 -209 -3 2 6 12 20 22 13 9 73 56
133 104 106 86 116 93 116 83z m-1483 -67 c-2 -13 -4 -3 -4 22 0 25 2 35 4 23
2 -13 2 -33 0 -45z m300 30 c-3 -7 -5 -2 -5 12 0 14 2 19 5 13 2 -7 2 -19 0
-25z m148 -8 c-4 -17 -9 -30 -11 -27 -2 2 -1 18 2 36 4 17 9 30 11 27 3 -2 2
-19 -2 -36z m-348 -47 c-2 -16 -4 -3 -4 27 0 30 2 43 4 28 2 -16 2 -40 0 -55z
m529 -138 c-58 -114 -106 -209 -106 -212 0 -2 4 -2 9 1 5 4 11 1 13 -6 3 -7
27 24 55 67 141 221 198 304 201 296 2 -6 -18 -43 -44 -83 -175 -271 -227
-348 -232 -344 -3 3 1 12 8 21 7 9 10 18 7 21 -9 9 -28 -33 -22 -48 3 -8 -8
-32 -24 -54 -17 -21 -55 -76 -85 -121 -31 -46 -58 -83 -60 -83 -7 0 38 101 93
210 110 216 273 536 278 543 3 5 7 6 10 3 3 -2 -43 -98 -101 -211z m-269 183
c-3 -8 -6 -5 -6 6 -1 11 2 17 5 13 3 -3 4 -12 1 -19z m50 -20 c-3 -8 -6 -5 -6
6 -1 11 2 17 5 13 3 -3 4 -12 1 -19z m332 -35 c-17 -32 -41 -74 -52 -93 -127
-227 -137 -243 -144 -237 -4 5 23 56 118 222 16 28 44 76 61 108 18 31 37 57
41 57 5 0 -6 -26 -24 -57z m-454 -8 c-4 -25 -9 -44 -12 -41 -2 2 -1 25 2 51 4
25 9 44 12 41 2 -2 1 -25 -2 -51z m102 33 c-3 -8 -6 -5 -6 6 -1 11 2 17 5 13
3 -3 4 -12 1 -19z m-340 -55 c-2 -16 -4 -5 -4 22 0 28 2 40 4 28 2 -13 2 -35
0 -50z m203 -19 c-16 -78 -21 -63 -7 21 6 38 13 62 15 52 2 -9 -2 -42 -8 -73z
m1280 82 c0 -2 -33 -27 -72 -56 -40 -30 -99 -73 -131 -97 -33 -24 -64 -43 -70
-43 -12 0 253 199 266 200 4 0 7 -2 7 -4z m-1213 -38 c-3 -7 -5 -2 -5 12 0 14
2 19 5 13 2 -7 2 -19 0 -25z m30 10 c-3 -8 -6 -5 -6 6 -1 11 2 17 5 13 3 -3 4
-12 1 -19z m118 -18 c-4 -17 -9 -29 -12 -26 -3 2 -2 19 2 36 4 17 9 29 12 26
3 -2 2 -19 -2 -36z m-328 -27 c-3 -10 -5 -4 -5 12 0 17 2 24 5 18 2 -7 2 -21
0 -30z m631 -75 c-34 -51 -67 -96 -73 -100 -5 -4 -7 -10 -3 -13 3 -4 39 39 80
94 40 55 77 100 81 100 16 2 -90 -144 -165 -226 -27 -28 -48 -56 -48 -61 0 -5
-21 -37 -47 -70 -62 -79 -157 -212 -161 -226 -5 -14 17 12 112 136 44 56 106
133 138 171 32 37 58 71 58 75 1 8 70 90 70 82 0 -8 -106 -147 -194 -254 -43
-53 -76 -99 -73 -102 3 -3 22 16 43 42 22 26 68 81 104 123 36 42 78 93 94
114 20 27 31 36 39 28 7 -7 -7 -29 -49 -74 -96 -102 -187 -205 -232 -261 -12
-16 -25 -26 -29 -23 -3 4 0 15 8 24 13 16 12 17 -4 4 -9 -8 -15 -21 -12 -30 7
-22 -95 -124 -112 -113 -9 6 3 31 45 90 31 46 89 132 127 192 131 204 260 391
263 381 2 -5 -25 -51 -60 -103z m811 94 c-13 -10 -51 -36 -84 -57 -33 -22 -91
-61 -128 -88 -38 -27 -71 -46 -74 -44 -5 6 287 207 301 207 5 0 -2 -8 -15 -18z
m-1254 -87 c-23 -102 -29 -90 -8 15 9 46 18 79 21 72 2 -6 -4 -46 -13 -87z
m63 59 c-3 -14 -5 -12 -10 9 -3 19 -2 25 4 19 6 -6 8 -18 6 -28z m-81 4 c-3
-8 -6 -5 -6 6 -1 11 2 17 5 13 3 -3 4 -12 1 -19z m110 0 c-3 -8 -6 -5 -6 6 -1
11 2 17 5 13 3 -3 4 -12 1 -19z m-39 -48 c0 -10 -3 -8 -9 5 -7 15 -8 12 -4
-15 2 -19 -2 -55 -9 -80 -8 -25 -15 -38 -15 -30 -1 8 -4 26 -6 40 -5 22 -4 23
5 5 9 -17 10 -16 6 10 -2 17 1 52 7 79 10 43 12 47 18 25 4 -13 7 -31 7 -39z
m1256 30 c-23 -23 -330 -193 -309 -172 10 11 306 182 315 182 2 0 0 -4 -6 -10z
m-1367 -32 c-3 -7 -5 -2 -5 12 0 14 2 19 5 13 2 -7 2 -19 0 -25z m30 0 c-3 -7
-5 -2 -5 12 0 14 2 19 5 13 2 -7 2 -19 0 -25z m98 -48 c-10 -39 -19 -69 -21
-67 -3 2 3 36 13 75 9 40 19 70 21 67 2 -2 -3 -36 -13 -75z m476 63 c-11 -21
-49 -63 -57 -63 -3 0 9 18 26 40 33 42 47 52 31 23z m-435 -30 c-19 -76 -28
-105 -32 -100 -5 5 27 127 34 127 2 0 1 -12 -2 -27z m480 6 c9 -16 -77 -102
-90 -89 -7 7 -1 19 19 38 16 15 22 18 14 7 -13 -18 -13 -19 3 -6 10 7 15 17
12 23 -6 10 13 38 27 38 4 0 11 -5 15 -11z m751 -6 c-16 -15 -312 -171 -317
-166 -3 3 0 8 5 10 6 2 75 39 155 83 132 71 175 91 157 73z m-1410 -25 c-3 -8
-6 -5 -6 6 -1 11 2 17 5 13 3 -3 4 -12 1 -19z m30 -10 c-3 -7 -5 -2 -5 12 0
14 2 19 5 13 2 -7 2 -19 0 -25z m627 -30 c-22 -24 -69 -74 -105 -113 -35 -38
-102 -110 -149 -160 -47 -50 -108 -115 -136 -145 -44 -47 -115 -114 -91 -85
13 15 184 200 322 349 66 71 133 144 148 162 16 19 34 34 40 34 6 0 -7 -19
-29 -42z m30 -20 c-16 -18 -59 -64 -96 -103 -37 -38 -94 -99 -127 -135 -33
-35 -62 -62 -65 -59 -6 5 296 327 308 328 6 1 -3 -14 -20 -31z m61 -33 c2 -14
-1 -23 -5 -20 -5 3 -11 1 -14 -4 -4 -6 7 -8 25 -6 28 4 25 0 -38 -51 -37 -31
-114 -93 -170 -140 -97 -80 -133 -99 -133 -71 0 16 319 332 327 324 3 -4 7
-18 8 -32z m-951 -209 c-10 -105 -20 -180 -22 -166 -5 31 31 387 37 369 2 -7
-5 -98 -15 -203z m63 192 c-3 -8 -6 -5 -6 6 -1 11 2 17 5 13 3 -3 4 -12 1 -19z
m100 0 c-3 -8 -6 -5 -6 6 -1 11 2 17 5 13 3 -3 4 -12 1 -19z m-56 -134 c-29
-183 -42 -244 -52 -244 -13 0 -11 42 11 211 23 175 32 209 25 99 -5 -80 6 -61
20 35 4 28 9 45 12 39 2 -7 -5 -70 -16 -140z m106 124 c-3 -8 -6 -5 -6 6 -1
11 2 17 5 13 3 -3 4 -12 1 -19z m-332 -185 c-4 -111 -12 -202 -17 -208 -10
-10 -8 67 9 313 10 161 15 99 8 -105z m86 30 c-14 -165 -22 -235 -28 -229 -5
4 14 262 23 334 13 90 16 27 5 -105z m69 -64 c-11 -90 -22 -165 -25 -167 -8
-8 -6 12 15 193 24 207 22 196 27 163 2 -15 -5 -100 -17 -189z m116 164 c-4
-33 -3 -42 3 -28 5 11 10 34 11 50 1 17 4 24 7 17 3 -7 -5 -63 -17 -125 -36
-189 -43 -218 -51 -206 -5 8 -9 6 -12 -7 -11 -46 33 242 49 319 9 45 17 30 10
-20z m81 25 c-3 -8 -6 -5 -6 6 -1 11 2 17 5 13 3 -3 4 -12 1 -19z m-59 -165
c-18 -87 -34 -151 -36 -142 -2 9 11 83 28 163 16 81 30 150 31 154 0 4 3 1 6
-5 2 -7 -10 -84 -29 -170z m-253 17 c-4 -83 -11 -165 -16 -183 -9 -33 -4 122
8 261 10 125 15 78 8 -78z m285 4 c-23 -113 -45 -183 -35 -109 10 69 49 237
53 226 2 -6 -6 -58 -18 -117z m809 123 c-68 -55 -352 -257 -355 -254 -5 5 13
19 176 138 144 106 164 119 174 119 5 0 7 -2 5 -3z m17 -46 c-4 -5 0 -11 6
-14 7 -2 -3 -12 -22 -22 -59 -30 -264 -154 -290 -176 -23 -18 56 21 269 133
40 21 76 37 78 34 3 -3 -22 -18 -56 -35 -33 -17 -75 -39 -93 -49 -193 -108
-230 -125 -245 -110 -13 14 -11 18 19 35 112 66 182 110 252 158 79 55 92 63
82 46z m539 -62 c-67 -26 -150 -51 -141 -41 11 11 148 59 171 60 11 1 -2 -8
-30 -19z m-468 -25 c2 -5 -35 -27 -82 -48 -47 -22 -84 -40 -82 -42 2 -2 42 13
90 33 48 20 90 33 94 29 4 -4 1 -11 -7 -16 -28 -18 -379 -160 -394 -160 -45 0
-10 27 131 101 248 130 242 128 250 103z m-506 -115 c-5 -14 -29 -43 -55 -67
-56 -52 -52 -53 14 -6 28 20 54 34 57 30 8 -8 10 -6 -71 -60 -69 -46 -81 -64
-17 -25 23 14 37 17 44 10 7 -7 22 -4 48 10 21 10 46 19 56 18 16 0 16 -1 -2
-9 -11 -5 -15 -9 -10 -10 14 -1 -162 -80 -179 -80 -7 0 -19 7 -26 15 -7 9 -20
13 -28 10 -13 -5 -13 -3 -1 12 19 25 173 180 177 177 1 0 -2 -12 -7 -25z m514
6 c-58 -27 -56 -31 5 -10 42 15 68 19 59 10 -7 -6 -413 -145 -425 -145 -23 0
21 22 106 55 52 19 104 40 115 45 61 30 162 69 175 69 8 0 -7 -11 -35 -24z
m-555 2 c0 -1 -37 -38 -82 -82 -51 -50 -66 -61 -39 -30 52 60 121 124 121 112z
m-393 -69 c-3 -8 -6 -5 -6 6 -1 11 2 17 5 13 3 -3 4 -12 1 -19z m1023 11 c-14
-6 -88 -28 -165 -49 -77 -21 -162 -46 -190 -54 -50 -16 -97 -22 -65 -8 35 14
407 120 425 120 16 1 16 -1 -5 -9z m-575 -39 c-16 -11 -34 -20 -40 -20 -5 0 4
9 20 20 17 11 35 20 40 20 6 0 -3 -9 -20 -20z m604 16 c-11 -11 -428 -118
-441 -114 -10 4 75 28 302 87 112 29 148 36 139 27z m-10 -60 c-3 -3 -43 -17
-89 -31 -47 -14 -71 -24 -54 -21 17 3 55 7 85 10 45 4 42 3 -21 -10 -347 -69
-398 -70 -160 -5 227 63 251 69 239 57z m-546 -42 c-40 -17 -43 -26 -5 -18 22
4 24 3 12 -6 -12 -9 -9 -10 15 -5 53 12 20 -5 -50 -25 -62 -18 -119 -18 -130
0 -6 9 28 26 100 49 71 22 104 25 58 5z m580 9 c-7 -2 -19 -2 -25 0 -7 3 -2 5
12 5 14 0 19 -2 13 -5z m-1046 -65 c-8 -5 -5 -8 10 -8 23 0 69 -65 52 -75 -5
-4 -6 -11 -3 -17 4 -6 2 -8 -4 -5 -5 4 -8 16 -5 26 3 10 -1 22 -7 26 -9 5 -10
1 -5 -14 4 -12 2 -21 -4 -21 -6 0 -8 -7 -5 -15 4 -8 1 -15 -5 -15 -6 0 -11 -8
-12 -17 0 -17 -1 -17 -11 -2 -10 15 -15 14 -40 -11 -15 -16 -28 -33 -28 -38 0
-5 -7 -15 -16 -23 -13 -10 -17 -10 -25 2 -6 10 -9 3 -9 -23 0 -37 1 -37 33
-33 17 3 26 2 18 -1 -8 -4 -27 -20 -42 -35 -16 -16 -37 -29 -49 -29 -11 0 -20
-7 -20 -16 0 -11 -6 -13 -19 -9 -27 8 -51 -20 -51 -59 0 -19 -7 -39 -15 -46
-14 -12 -15 -8 -10 31 l6 44 -19 -22 c-20 -23 -35 -21 -25 3 4 10 0 12 -11 8
-9 -3 -16 -1 -16 4 0 6 8 13 18 15 13 4 11 5 -5 6 -13 0 -22 6 -20 12 1 6 -4
14 -12 17 -10 3 -11 0 -5 -9 6 -12 5 -12 -10 0 -12 10 -14 17 -6 25 5 5 10 19
11 31 1 30 32 79 57 90 12 5 22 13 22 18 0 4 5 5 10 2 6 -4 16 7 23 24 13 31
110 111 134 111 12 0 17 13 14 33 0 4 4 7 9 7 6 0 10 5 10 11 0 27 31 36 66
20 23 -10 30 -18 21 -23z m1070 26 c-3 -3 -12 -4 -19 -1 -8 3 -5 6 6 6 11 1
17 -2 13 -5z m-48 -8 c-8 -7 -390 -68 -396 -62 -7 6 8 10 192 40 142 23 213
31 204 22z m-449 -34 c0 -4 -37 -18 -82 -30 -69 -18 -75 -21 -33 -17 28 3 64
8 80 11 21 3 25 2 15 -4 -8 -5 -37 -13 -65 -16 -27 -4 -65 -10 -82 -13 -26 -4
-33 -2 -33 11 0 9 8 16 18 16 14 0 15 2 2 10 -12 7 -8 10 15 10 17 1 57 7 90
15 75 17 75 17 75 7z m525 -2 c-16 -4 -70 -13 -120 -20 -145 -21 -304 -49
-252 -46 26 2 47 0 47 -5 0 -5 -10 -9 -22 -9 -13 0 -41 -2 -63 -5 -22 -3 -34
-2 -26 1 11 5 11 8 0 15 -20 12 -6 15 221 48 208 30 270 36 215 21z m0 -29
c-13 -11 -275 -45 -300 -38 -11 3 -3 6 20 7 31 1 265 33 285 39 2 0 0 -3 -5
-8z m48 2 c-7 -2 -19 -2 -25 0 -7 3 -2 5 12 5 14 0 19 -2 13 -5z m-18 -33
c-16 -5 -113 -18 -214 -30 -102 -12 -197 -24 -213 -27 -15 -3 -28 -1 -28 4 0
6 71 18 158 28 86 9 182 21 212 25 30 4 69 8 85 8 l30 0 -30 -8z m-565 -20
l-35 -7 40 -3 c34 -2 30 -4 -35 -16 -99 -17 -130 -17 -130 -1 0 15 87 34 155
34 l40 0 -35 -7z m610 -14 c0 -2 -46 -9 -102 -15 -57 -7 -154 -18 -216 -26
-127 -17 -190 -19 -157 -6 11 4 103 16 205 26 102 9 187 19 189 21 6 5 81 5
81 0z m-1074 -69 c-3 -15 -15 -37 -26 -49 -23 -25 -27 -13 -4 17 10 14 13 32
9 60 -6 38 -5 39 10 20 10 -13 14 -30 11 -48z m508 43 c-11 -4 -47 -11 -80
-14 -32 -4 -75 -9 -94 -12 -24 -4 -32 -2 -25 5 9 9 131 27 195 29 23 1 24 0 4
-8z m551 -5 c-5 -2 -98 -13 -205 -25 -107 -11 -207 -23 -222 -26 -16 -3 -28
-2 -28 3 0 5 82 18 183 27 100 10 184 20 186 22 2 2 25 4 50 3 25 0 42 -2 36
-4z m-570 -35 c-67 -13 -170 -23 -163 -15 9 9 101 22 158 23 l45 0 -40 -8z
m555 0 c-30 -5 -77 -8 -105 -7 l-50 0 60 7 c33 4 80 7 105 7 44 0 44 0 -10 -7z
m-1166 -68 c-17 -16 -21 -18 -10 -5 12 15 16 29 11 44 -7 22 -7 22 10 5 17
-17 17 -19 -11 -44z m1161 46 c-245 -25 -411 -36 -419 -28 -5 5 -8 12 -5 14
10 10 186 22 334 21 124 0 144 -2 90 -7z m-570 -8 c-16 -4 -55 -7 -85 -7 l-55
0 55 7 c30 4 69 7 85 7 l30 1 -30 -8z m37 -17 c-6 -2 -10 -8 -8 -12 6 -9 8 -8
-94 -17 -69 -5 -73 -5 -54 9 12 9 48 17 85 20 35 2 69 4 74 4 6 1 4 -1 -3 -4z
m597 3 c-7 -6 -447 -38 -461 -33 -7 2 32 8 87 12 55 4 134 11 175 15 84 8 206
12 199 6z m26 -31 c-18 -7 -488 -36 -493 -30 -3 3 1 5 9 6 8 1 93 7 189 13
175 13 314 18 295 11z m-685 -25 l-55 -7 55 -3 55 -2 -60 -9 c-69 -11 -111 -8
-108 6 3 15 41 23 108 22 l60 0 -55 -7z m-400 -14 c0 -9 -40 -13 -46 -5 -3 5
6 9 20 9 14 0 26 -2 26 -4z m-67 -13 c-7 -2 -21 -2 -30 0 -10 3 -4 5 12 5 17
0 24 -2 18 -5z m-439 -72 c4 -5 -3 -7 -14 -4 -23 6 -26 13 -6 13 8 0 17 -4 20
-9z m630 -526 c-4 -8 -11 -15 -16 -15 -6 0 -5 6 2 15 7 8 14 15 16 15 2 0 1
-7 -2 -15z m571 -354 c3 -5 1 -12 -5 -16 -5 -3 -10 1 -10 9 0 18 6 21 15 7z
m333 -298 c-6 -7 -14 -10 -19 -7 -15 9 -10 20 10 20 15 0 17 -3 9 -13z m-5323
-1983 c-3 -5 -1 -11 5 -15 5 -3 10 -12 10 -18 0 -7 -9 -1 -19 13 -19 24 -19
46 0 34 5 -3 7 -9 4 -14z m55 -86 c0 -2 -7 -4 -15 -4 -8 0 -15 4 -15 10 0 5 7
7 15 4 8 -4 15 -8 15 -10z m1068 -114 c-7 -11 -17 -20 -22 -20 -5 0 -1 9 9 20
10 11 20 20 22 20 2 0 -2 -9 -9 -20z m-28 -34 c0 -3 -4 -8 -10 -11 -5 -3 -10
-1 -10 4 0 6 5 11 10 11 6 0 10 -2 10 -4z m-36 -38 c-27 -45 -126 -188 -130
-188 -6 0 -4 3 59 100 51 79 67 100 74 100 2 0 1 -6 -3 -12z m-166 -248 c-7
-10 -14 -17 -17 -15 -4 4 18 35 25 35 2 0 -1 -9 -8 -20z m95 -248 c34 -47 102
-213 110 -266 8 -53 -11 -33 -24 24 -10 45 -67 168 -106 232 -42 69 -26 77 20
10z m393 -149 c-8 -8 -36 10 -36 25 0 13 3 12 20 -3 11 -10 18 -20 16 -22z
m-249 -625 c-3 -8 -6 -5 -6 6 -1 11 2 17 5 13 3 -3 4 -12 1 -19z m-3133 -44
c3 -8 2 -12 -4 -9 -6 3 -10 10 -10 16 0 14 7 11 14 -7z m2593 -2821 c-3 -10
-5 -4 -5 12 0 17 2 24 5 18 2 -7 2 -21 0 -30z m-25 -80 c-23 -44 -92 -92 -92
-64 0 5 16 19 35 31 19 12 42 34 52 50 24 42 28 29 5 -17z m201 -56 c-4 -7 -9
-21 -10 -32 -5 -33 -12 -45 -25 -45 -10 0 -10 2 0 8 19 13 11 62 -11 62 -10 0
-15 5 -12 11 4 6 13 8 21 5 7 -3 16 -1 19 5 4 5 11 7 16 3 5 -3 6 -11 2 -17z
m-113 -7 c0 -5 -4 -10 -10 -10 -5 0 -10 5 -10 10 0 6 5 10 10 10 6 0 10 -4 10
-10z m40 -4 c0 -2 -7 -6 -15 -10 -8 -3 -15 -1 -15 4 0 6 7 10 15 10 8 0 15 -2
15 -4z m-350 -46 c0 -5 -11 -12 -25 -16 -17 -4 -31 -21 -49 -59 -23 -51 -27
-54 -68 -59 -85 -11 -104 -15 -164 -37 -58 -22 -64 -22 -135 -9 -41 7 -78 16
-84 20 -5 4 -35 13 -65 20 -51 12 -100 30 -175 65 l-30 14 26 0 c15 1 75 -15
135 -35 167 -54 239 -67 299 -53 28 6 55 16 62 21 6 5 40 13 74 18 49 7 67 15
89 38 14 16 24 34 22 40 -1 5 7 17 20 26 25 18 68 22 68 6z m372 -82 c-7 -7
-12 -8 -12 -2 0 14 12 26 19 19 2 -3 -1 -11 -7 -17z m-21 -95 c-12 -20 -14
-14 -5 12 4 9 9 14 11 11 3 -2 0 -13 -6 -23z m-24 -5 c-3 -8 -6 -5 -6 6 -1 11
2 17 5 13 3 -3 4 -12 1 -19z m-17 -123 c-7 -9 -15 -13 -19 -10 -3 3 1 10 9 15
21 14 24 12 10 -5z m-120 -99 c0 -3 -4 -8 -10 -11 -5 -3 -10 -1 -10 4 0 6 5
11 10 11 6 0 10 -2 10 -4z m-6323 -173 c-2 -16 -4 -3 -4 27 0 30 2 43 4 28 2
-16 2 -40 0 -55z m10 -100 c-3 -10 -5 -4 -5 12 0 17 2 24 5 18 2 -7 2 -21 0
-30z m6393 33 c0 -2 -7 -7 -16 -10 -8 -3 -12 -2 -9 4 6 10 25 14 25 6z m410
-4 c0 -13 -12 -22 -22 -16 -10 6 -1 24 13 24 5 0 9 -4 9 -8z m-500 -32 c0 -6
-7 -13 -15 -17 -9 -3 -23 -19 -31 -36 -19 -36 -77 -97 -92 -97 -6 0 -17 -7
-26 -15 -19 -20 -101 -35 -188 -35 -72 0 -158 17 -158 30 0 5 60 8 133 8 168
0 198 11 280 101 52 58 67 71 82 71 8 0 15 -5 15 -10z m457 -32 c-3 -7 -5 -2
-5 12 0 14 2 19 5 13 2 -7 2 -19 0 -25z m-7 -33 c0 -8 -9 -15 -20 -15 -20 0
-26 11 -13 23 12 13 33 7 33 -8z m-6743 -17 c-3 -8 -6 -5 -6 6 -1 11 2 17 5
13 3 -3 4 -12 1 -19z m5923 -28 c0 -5 -7 -10 -15 -10 -8 0 -15 5 -15 10 0 6 7
10 15 10 8 0 15 -4 15 -10z m670 -40 c0 -5 -5 -10 -11 -10 -5 0 -7 5 -4 10 3
6 8 10 11 10 2 0 4 -4 4 -10z m-1891 -16 c9 -8 -75 -2 -94 6 -12 5 1 6 35 3
30 -3 57 -7 59 -9z m69 -11 c-10 -2 -28 -2 -40 0 -13 2 -5 4 17 4 22 1 32 -1
23 -4z m856 -24 c22 -17 43 -22 92 -21 35 0 61 -4 58 -9 -3 -5 -31 -9 -62 -9
-43 1 -67 7 -97 25 -25 15 -55 25 -80 25 -22 0 -47 5 -55 11 -11 8 3 9 50 5
43 -4 75 -13 94 -27z m-791 14 c-7 -2 -21 -2 -30 0 -10 3 -4 5 12 5 17 0 24
-2 18 -5z m1697 -7 c0 -3 -4 -8 -10 -11 -5 -3 -10 -1 -10 4 0 6 5 11 10 11 6
0 10 -2 10 -4z"/>
<path d="M10091 9674 c0 -11 3 -14 6 -6 3 7 2 16 -1 19 -3 4 -6 -2 -5 -13z"/>
<path d="M10081 9634 c0 -11 3 -14 6 -6 3 7 2 16 -1 19 -3 4 -6 -2 -5 -13z"/>
<path d="M10091 9584 c0 -11 3 -14 6 -6 3 7 2 16 -1 19 -3 4 -6 -2 -5 -13z"/>
<path d="M10081 9544 c0 -11 3 -14 6 -6 3 7 2 16 -1 19 -3 4 -6 -2 -5 -13z"/>
<path d="M10297 9763 c-4 -3 -7 -13 -7 -22 1 -13 3 -13 11 2 11 19 8 33 -4 20z"/>
<path d="M10141 9984 c0 -11 3 -14 6 -6 3 7 2 16 -1 19 -3 4 -6 -2 -5 -13z"/>
<path d="M10720 9843 c-30 -32 -43 -48 -29 -35 26 23 45 29 34 12 -3 -5 -1
-10 5 -10 7 0 9 7 6 15 -3 10 7 27 27 45 17 16 27 30 22 30 -6 0 -35 -26 -65
-57z"/>
<path d="M9922 9690 c0 -19 2 -27 5 -17 2 9 2 25 0 35 -3 9 -5 1 -5 -18z"/>
<path d="M9911 9614 c0 -11 3 -14 6 -6 3 7 2 16 -1 19 -3 4 -6 -2 -5 -13z"/>
<path d="M10900 9664 l-25 -15 25 7 c14 3 29 10 35 15 15 14 -7 10 -35 -7z"/>
<path d="M10734 9570 c-12 -5 -25 -13 -28 -19 -5 -8 49 14 63 26 8 6 -14 2
-35 -7z"/>
<path d="M9910 9200 c0 -5 4 -11 10 -15 5 -3 7 -12 3 -20 -3 -9 1 -15 10 -15
10 0 13 7 10 24 -5 23 -33 46 -33 26z"/>
<path d="M9842 9141 c-9 -25 -8 -30 9 -34 10 -3 19 -12 19 -21 0 -9 7 -16 15
-16 8 0 15 8 15 19 0 10 -7 24 -15 31 -8 7 -15 21 -15 31 0 29 -17 23 -28 -10z"/>
<path d="M9770 9080 c0 -5 5 -10 11 -10 5 0 7 5 4 10 -3 6 -8 10 -11 10 -2 0
-4 -4 -4 -10z"/>
<path d="M9740 8976 c0 -2 7 -6 15 -10 8 -3 15 -1 15 4 0 6 -7 10 -15 10 -8 0
-15 -2 -15 -4z"/>
<path d="M10943 9123 c15 -2 37 -2 50 0 12 2 0 4 -28 4 -27 0 -38 -2 -22 -4z"/>
<path d="M10843 9113 c15 -2 37 -2 50 0 12 2 0 4 -28 4 -27 0 -38 -2 -22 -4z"/>
<path d="M10478 9033 c6 -2 18 -2 25 0 6 3 1 5 -13 5 -14 0 -19 -2 -12 -5z"/>
<path d="M1848 11443 c12 -2 32 -2 45 0 12 2 2 4 -23 4 -25 0 -35 -2 -22 -4z"/>
<path d="M1980 11440 c0 -5 7 -10 15 -10 8 0 15 5 15 10 0 6 -7 10 -15 10 -8
0 -15 -4 -15 -10z"/>
<path d="M2043 11392 c3 -24 13 -52 23 -63 16 -17 16 -19 1 -19 -10 0 -17 6
-17 14 0 7 -13 16 -29 19 -24 5 -28 10 -24 27 3 11 9 20 14 20 5 0 9 7 9 15 0
10 -10 15 -27 15 -20 0 -24 -3 -14 -9 11 -7 11 -9 0 -14 -10 -4 -10 -6 -1 -6
6 -1 12 -8 12 -16 0 -11 -11 -15 -40 -15 -29 0 -40 -4 -40 -15 0 -11 11 -15
40 -15 23 0 40 -5 40 -11 0 -9 -30 -10 -109 -6 -119 6 -201 0 -179 -14 19 -12
288 -11 288 1 0 6 12 10 26 10 25 0 26 -2 21 -40 -5 -37 -4 -40 20 -40 23 0
25 3 21 32 -6 35 9 57 32 50 13 -5 13 -3 1 12 -8 9 -20 15 -28 12 -7 -3 -13
-1 -13 4 0 6 5 10 10 10 10 0 7 7 -28 64 -12 19 -13 17 -9 -22z"/>
<path d="M2967 11423 c-4 -3 -7 -11 -7 -17 0 -6 5 -5 12 2 6 6 9 14 7 17 -3 3
-9 2 -12 -2z"/>
<path d="M433 11413 c9 -2 23 -2 30 0 6 3 -1 5 -18 5 -16 0 -22 -2 -12 -5z"/>
<path d="M1328 11413 c34 -2 90 -2 125 0 34 2 6 3 -63 3 -69 0 -97 -1 -62 -3z"/>
<path d="M1858 11413 c17 -2 47 -2 65 0 17 2 3 4 -33 4 -36 0 -50 -2 -32 -4z"/>
<path d="M3230 11411 c-25 -3 90 -5 255 -3 165 1 311 4 325 6 14 2 -101 3
-255 3 -154 0 -300 -3 -325 -6z"/>
<path d="M3853 11413 c9 -2 23 -2 30 0 6 3 -1 5 -18 5 -16 0 -22 -2 -12 -5z"/>
<path d="M4463 11413 c26 -2 67 -2 90 0 23 2 2 3 -48 3 -49 0 -68 -1 -42 -3z"/>
<path d="M4628 11413 c12 -2 32 -2 45 0 12 2 2 4 -23 4 -25 0 -35 -2 -22 -4z"/>
<path d="M4926 11405 c-3 -8 -12 -15 -20 -15 -15 0 -32 -37 -22 -47 3 -4 14 1
23 9 10 8 26 18 35 21 11 4 15 12 12 21 -5 13 18 16 168 19 l173 3 -181 2
c-154 2 -183 0 -188 -13z"/>
<path d="M5433 11413 c59 -2 155 -2 215 0 59 1 10 3 -108 3 -118 0 -167 -2
-107 -3z"/>
<path d="M1918 11393 c6 -2 18 -2 25 0 6 3 1 5 -13 5 -14 0 -19 -2 -12 -5z"/>
<path d="M3838 11393 c6 -2 18 -2 25 0 6 3 1 5 -13 5 -14 0 -19 -2 -12 -5z"/>
<path d="M4550 11378 c0 -10 4 -18 9 -18 5 0 23 -12 40 -26 30 -25 31 -25 31
-5 0 29 50 30 57 1 5 -21 13 -24 48 -20 30 3 40 17 16 25 -12 3 -19 10 -16 15
3 5 1 11 -5 15 -6 4 -8 10 -5 15 7 12 -46 20 -117 17 -48 -1 -58 -4 -58 -19z"/>
<path d="M5148 11393 c23 -2 42 -8 42 -14 0 -5 36 -9 80 -9 58 0 80 4 80 13 0
9 -31 12 -122 13 -68 1 -104 -1 -80 -3z"/>
<path d="M4450 11381 c0 -6 5 -13 10 -16 6 -3 10 -17 10 -31 0 -17 5 -24 20
-24 16 0 20 -7 20 -32 0 -17 2 -29 5 -26 3 3 3 35 -1 72 -7 64 -7 66 -35 66
-16 0 -29 -4 -29 -9z"/>
<path d="M1270 11370 c0 -13 11 -13 30 0 12 8 11 10 -7 10 -13 0 -23 -4 -23
-10z"/>
<path d="M3853 11373 c-13 -3 -23 -9 -23 -15 0 -7 25 -8 76 -3 57 5 79 4 84
-5 5 -8 15 -10 26 -6 16 6 17 9 4 15 -18 10 -136 19 -167 14z"/>
<path d="M5528 11373 c12 -2 32 -2 45 0 12 2 2 4 -23 4 -25 0 -35 -2 -22 -4z"/>
<path d="M7198 11373 c6 -2 18 -2 25 0 6 3 1 5 -13 5 -14 0 -19 -2 -12 -5z"/>
<path d="M888 11353 c7 -3 16 -2 19 1 4 3 -2 6 -13 5 -11 0 -14 -3 -6 -6z"/>
<path d="M4833 11353 c9 -2 23 -2 30 0 6 3 -1 5 -18 5 -16 0 -22 -2 -12 -5z"/>
<path d="M5385 11343 c209 -16 212 -17 165 -24 -42 -6 -40 -6 23 -7 37 -1 67
2 67 6 0 26 -29 32 -159 30 -75 -1 -118 -3 -96 -5z"/>
<path d="M1320 11330 c-12 -8 -11 -10 8 -10 12 0 22 5 22 10 0 13 -11 13 -30
0z"/>
<path d="M2890 11330 c0 -5 5 -10 10 -10 6 0 10 5 10 10 0 6 -4 10 -10 10 -5
0 -10 -4 -10 -10z"/>
<path d="M7240 11330 c0 -5 5 -10 10 -10 6 0 10 5 10 10 0 6 -4 10 -10 10 -5
0 -10 -4 -10 -10z"/>
<path d="M3928 11323 c12 -2 32 -2 45 0 12 2 2 4 -23 4 -25 0 -35 -2 -22 -4z"/>
<path d="M4248 11317 c-12 -10 -17 -33 -20 -94 -2 -45 0 -79 5 -76 4 2 7 -14
7 -36 0 -30 4 -41 15 -41 11 0 15 11 15 40 0 29 4 40 15 40 10 0 15 -10 15
-29 0 -57 12 -91 31 -91 12 0 19 -7 19 -20 0 -18 -7 -20 -60 -20 -53 0 -60 -2
-60 -20 0 -17 7 -20 44 -20 54 0 76 8 76 26 0 8 9 14 20 14 13 0 20 -7 20 -20
0 -23 10 -26 28 -8 18 18 15 28 -8 28 -13 0 -20 7 -20 20 0 13 -7 20 -20 20
-16 0 -20 7 -20 30 0 19 -7 34 -20 42 -11 7 -20 21 -20 30 0 14 8 18 40 18
l40 0 0 80 c0 66 3 80 16 80 8 0 12 5 9 10 -9 15 -102 13 -108 -2 -4 -10 -6
-10 -6 0 -1 16 -31 15 -53 -1z"/>
<path d="M4808 11323 c12 -2 32 -2 45 0 12 2 2 4 -23 4 -25 0 -35 -2 -22 -4z"/>
<path d="M7215 11320 c3 -5 8 -10 11 -10 2 0 4 5 4 10 0 6 -5 10 -11 10 -5 0
-7 -4 -4 -10z"/>
<path d="M1290 11300 c0 -5 4 -10 9 -10 6 0 13 5 16 10 3 6 -1 10 -9 10 -9 0
-16 -4 -16 -10z"/>
<path d="M1342 11270 c0 -14 2 -19 5 -12 2 6 2 18 0 25 -3 6 -5 1 -5 -13z"/>
<path d="M7308 11263 c6 -2 18 -2 25 0 6 3 1 5 -13 5 -14 0 -19 -2 -12 -5z"/>
<path d="M2620 11239 c0 -5 4 -8 9 -5 5 4 11 1 13 -6 3 -7 12 -9 22 -5 9 4 14
11 11 17 -8 13 -55 13 -55 -1z"/>
<path d="M4190 11240 c0 -5 5 -10 11 -10 5 0 7 5 4 10 -3 6 -8 10 -11 10 -2 0
-4 -4 -4 -10z"/>
<path d="M2150 11230 c0 -5 5 -10 11 -10 5 0 7 5 4 10 -3 6 -8 10 -11 10 -2 0
-4 -4 -4 -10z"/>
<path d="M1845 11224 c48 -8 165 -9 165 -2 0 4 -42 7 -92 7 -51 -1 -84 -3 -73
-5z"/>
<path d="M2710 11220 c0 -5 5 -10 11 -10 5 0 7 5 4 10 -3 6 -8 10 -11 10 -2 0
-4 -4 -4 -10z"/>
<path d="M4070 11210 c0 -11 2 -20 4 -20 2 0 6 9 9 20 3 11 1 20 -4 20 -5 0
-9 -9 -9 -20z"/>
<path d="M4137 11210 c3 -11 7 -20 9 -20 2 0 4 9 4 20 0 11 -4 20 -9 20 -5 0
-7 -9 -4 -20z"/>
<path d="M1830 11200 c0 -6 33 -10 80 -10 47 0 80 4 80 10 0 6 -33 10 -80 10
-47 0 -80 -4 -80 -10z"/>
<path d="M2150 11201 c0 -6 4 -12 10 -16 5 -3 6 -13 3 -23 -6 -15 -5 -15 10
-3 13 10 14 18 6 32 -10 20 -29 26 -29 10z"/>
<path d="M1830 11110 l0 -39 -82 -4 c-46 -1 -9 -3 82 -3 91 0 146 1 123 3 -43
4 -43 4 -43 44 0 39 0 39 -40 39 -40 0 -40 0 -40 -40z"/>
<path d="M4165 11140 c3 -5 8 -10 11 -10 2 0 4 5 4 10 0 6 -5 10 -11 10 -5 0
-7 -4 -4 -10z"/>
<path d="M4573 11070 c0 -47 2 -66 4 -42 2 23 2 61 0 85 -2 23 -4 4 -4 -43z"/>
<path d="M4070 11110 c0 -32 1 -33 17 -17 16 16 16 18 0 34 -16 16 -17 15 -17
-17z"/>
<path d="M6148 11122 c-16 -9 -28 -24 -28 -33 0 -9 -7 -34 -16 -55 -13 -30
-19 -95 -25 -289 -9 -245 -19 -364 -39 -437 -9 -33 -15 -37 -59 -48 -87 -21
-165 -28 -188 -17 -12 5 -20 14 -17 18 3 5 -1 9 -9 9 -10 0 -18 23 -27 75 -7
42 -17 78 -21 81 -4 2 -11 26 -15 52 -4 26 -15 64 -25 84 -10 20 -16 43 -14
51 3 7 1 24 -4 38 -8 21 -10 21 -11 4 0 -16 -2 -17 -9 -6 -6 9 -6 22 0 33 8
14 6 16 -7 11 -13 -5 -15 -2 -9 17 5 15 4 20 -4 16 -7 -5 -11 3 -11 23 0 16
-4 31 -8 33 -13 5 -53 89 -47 99 4 5 2 9 -3 9 -5 0 -15 20 -22 45 -7 25 -17
45 -21 45 -5 0 -9 5 -9 10 0 6 -10 26 -22 46 -23 35 -23 35 -80 29 -53 -5 -57
-4 -52 12 5 15 4 16 -5 3 -7 -10 -11 -11 -11 -2 0 21 -26 13 -40 -13 -7 -13
-18 -22 -24 -19 -6 3 -2 -2 9 -10 22 -18 37 -17 43 5 3 12 2 12 -7 -1 -5 -8
-12 -12 -15 -9 -3 3 1 14 8 25 12 15 17 17 28 6 14 -14 3 -39 -26 -56 -14 -8
-20 -8 -23 2 -3 6 -12 12 -21 12 -15 -1 -15 -2 1 -14 22 -17 22 -26 -5 -57
-24 -26 -41 -53 -66 -102 -7 -15 -18 -25 -23 -22 -5 4 -6 -2 -2 -11 5 -13 3
-15 -7 -9 -10 6 -12 4 -7 -8 3 -10 3 -17 -2 -17 -5 0 -12 -11 -15 -25 -4 -14
-11 -25 -16 -25 -6 0 -10 -12 -10 -26 0 -14 -5 -35 -11 -46 -11 -21 -12 -21
-26 -2 -13 17 -13 15 -7 -23 4 -27 3 -43 -4 -43 -5 0 -8 -10 -5 -22 4 -19 3
-20 -6 -8 -9 12 -11 10 -10 -10 0 -30 -23 -100 -33 -100 -5 0 -8 -12 -9 -27 0
-16 -4 -37 -9 -48 -6 -14 -7 -6 -3 23 3 23 2 42 -3 42 -5 0 -9 -21 -8 -47 0
-27 -8 -79 -18 -118 -10 -38 -20 -81 -22 -95 -3 -14 -8 -36 -13 -50 -5 -14 -6
-45 -2 -70 6 -42 6 -43 7 -10 4 94 66 319 132 480 117 287 208 435 310 503 66
45 95 12 195 -227 85 -202 121 -307 160 -458 35 -135 41 -139 181 -116 132 22
138 28 157 135 17 99 24 180 37 445 9 196 23 259 63 290 52 41 110 16 244
-101 63 -55 110 -107 147 -163 49 -74 127 -172 111 -141 -3 7 -1 23 6 35 9 19
9 21 -2 11 -16 -16 -33 -17 -23 -1 4 6 3 8 -3 5 -5 -3 -17 7 -27 24 -9 16 -14
29 -9 29 4 0 -3 7 -15 16 -12 8 -22 21 -22 28 0 8 -7 19 -15 26 -9 8 -13 21
-10 34 4 14 3 17 -3 8 -13 -19 -44 19 -36 44 4 15 4 16 -4 5 -8 -11 -18 -6
-54 27 -23 22 -61 55 -83 72 -22 17 -43 37 -47 43 -4 7 -8 8 -8 3 0 -4 -11 -1
-24 7 -37 25 -106 29 -138 9z"/>
<path d="M2215 11121 c-3 -5 -1 -12 5 -16 5 -3 10 1 10 9 0 18 -6 21 -15 7z"/>
<path d="M7510 11093 c0 -13 29 -38 35 -31 3 3 -4 13 -15 23 -11 10 -20 13
-20 8z"/>
<path d="M2397 11083 c-4 -3 -6 -18 -6 -32 1 -21 2 -22 6 -6 3 11 10 26 15 33
11 12 -3 18 -15 5z"/>
<path d="M4165 11080 c-3 -5 -1 -10 4 -10 6 0 11 5 11 10 0 6 -2 10 -4 10 -3
0 -8 -4 -11 -10z"/>
<path d="M6360 11086 c0 -2 7 -9 15 -16 13 -11 14 -10 9 4 -5 14 -24 23 -24
12z"/>
<path d="M3830 11051 c0 -15 9 -20 46 -23 53 -4 57 -2 41 23 -17 27 -87 27
-87 0z"/>
<path d="M3990 11054 c0 -17 22 -14 28 4 2 7 -3 12 -12 12 -9 0 -16 -7 -16
-16z"/>
<path d="M5482 11048 c6 -18 25 -21 25 -3 0 8 -7 15 -14 15 -8 0 -13 -5 -11
-12z"/>
<path d="M7510 11052 c0 -12 19 -26 26 -19 2 2 -2 10 -11 17 -9 8 -15 8 -15 2z"/>
<path d="M6211 11041 c-11 -7 -12 -44 -2 -227 6 -121 9 -284 8 -364 -2 -80 -2
-151 1 -157 2 -7 36 -22 76 -33 149 -43 393 -145 457 -191 l29 -20 0 43 c-1
193 -144 511 -332 735 -31 37 -76 93 -100 123 -39 48 -100 100 -117 100 -3 0
-12 -4 -20 -9z"/>
<path d="M6420 11040 c0 -5 5 -10 11 -10 5 0 7 5 4 10 -3 6 -8 10 -11 10 -2 0
-4 -4 -4 -10z"/>
<path d="M7560 11047 c0 -4 5 -13 10 -20 39 -46 50 -61 50 -69 0 -4 5 -8 10
-8 7 0 7 6 1 18 -16 26 -70 88 -71 79z"/>
<path d="M1830 11030 c0 -6 33 -10 80 -10 47 0 80 4 80 10 0 6 -33 10 -80 10
-47 0 -80 -4 -80 -10z"/>
<path d="M6453 11024 c-15 -16 -16 -24 -4 -24 8 0 24 30 19 35 -2 2 -9 -3 -15
-11z"/>
<path d="M6071 10984 c0 -11 3 -14 6 -6 3 7 2 16 -1 19 -3 4 -6 -2 -5 -13z"/>
<path d="M2312 10970 c0 -14 2 -19 5 -12 2 6 2 18 0 25 -3 6 -5 1 -5 -13z"/>
<path d="M2526 10975 c4 -8 8 -15 10 -15 2 0 4 7 4 15 0 8 -4 15 -10 15 -5 0
-7 -7 -4 -15z"/>
<path d="M2610 10976 c0 -8 5 -18 10 -21 6 -3 10 0 10 7 0 7 9 2 20 -12 l20
-25 20 25 c11 14 20 28 20 33 0 4 -22 7 -50 7 -37 0 -50 -4 -50 -14z"/>
<path d="M2720 10910 c0 -47 4 -80 10 -80 6 0 10 8 10 19 0 10 3 46 6 80 6 52
5 61 -10 61 -13 0 -16 -12 -16 -80z"/>
<path d="M4488 10983 c12 -2 32 -2 45 0 12 2 2 4 -23 4 -25 0 -35 -2 -22 -4z"/>
<path d="M5530 10971 c0 -11 5 -23 10 -26 6 -3 10 3 10 14 0 11 -4 23 -10 26
-5 3 -10 -3 -10 -14z"/>
<path d="M5235 10970 c3 -5 8 -10 11 -10 2 0 4 5 4 10 0 6 -5 10 -11 10 -5 0
-7 -4 -4 -10z"/>
<path d="M5198 10953 c7 -3 16 -2 19 1 4 3 -2 6 -13 5 -11 0 -14 -3 -6 -6z"/>
<path d="M2511 10930 c0 -8 6 -24 14 -34 12 -16 18 -17 27 -8 9 9 9 15 -1 25
-11 10 -13 10 -7 0 4 -7 2 -13 -4 -13 -6 0 -15 10 -20 23 -5 12 -9 15 -9 7z"/>
<path d="M2648 10903 c12 -2 32 -2 45 0 12 2 2 4 -23 4 -25 0 -35 -2 -22 -4z"/>
<path d="M4011 10894 c0 -11 3 -14 6 -6 3 7 2 16 -1 19 -3 4 -6 -2 -5 -13z"/>
<path d="M4368 10903 c7 -3 16 -2 19 1 4 3 -2 6 -13 5 -11 0 -14 -3 -6 -6z"/>
<path d="M6042 10890 c0 -14 2 -19 5 -12 2 6 2 18 0 25 -3 6 -5 1 -5 -13z"/>
<path d="M7692 10896 c9 -9 25 -16 34 -16 23 0 7 15 -26 25 -22 7 -23 6 -8 -9z"/>
<path d="M5362 10846 c-142 -156 -235 -364 -302 -671 -25 -113 -37 -288 -23
-324 10 -25 10 -25 64 30 32 31 82 67 119 85 36 18 117 57 180 88 63 31 144
67 180 79 62 22 65 24 62 53 -6 50 -111 402 -132 444 -11 21 -24 70 -30 107
-12 86 -38 163 -55 163 -7 0 -35 -24 -63 -54z"/>
<path d="M5570 10854 c0 -5 7 -18 15 -28 8 -11 15 -16 15 -10 0 5 -7 18 -15
28 -8 11 -15 16 -15 10z"/>
<path d="M3654 10815 c11 -9 38 -14 60 -13 l41 1 -42 4 c-24 2 -43 8 -43 14 0
5 -8 9 -17 9 -16 -1 -16 -2 1 -15z"/>
<path d="M2950 10800 c0 -17 7 -20 40 -20 22 0 40 5 40 10 0 6 102 10 283 11
175 1 263 5 232 9 -27 5 -173 9 -322 9 -267 1 -273 1 -273 -19z"/>
<path d="M3030 10771 c0 -6 -17 -12 -37 -14 -21 -2 -11 -3 21 -1 32 2 157 4
277 4 139 0 219 4 219 10 0 6 -87 10 -240 10 -144 0 -240 -4 -240 -9z"/>
<path d="M3688 10773 c12 -2 32 -2 45 0 12 2 2 4 -23 4 -25 0 -35 -2 -22 -4z"/>
<path d="M5655 10749 c-4 -6 -5 -12 -2 -15 2 -3 7 2 10 11 7 17 1 20 -8 4z"/>
<path d="M2261 10734 c0 -11 3 -14 6 -6 3 7 2 16 -1 19 -3 4 -6 -2 -5 -13z"/>
<path d="M3270 10739 c0 -7 13 -9 40 -4 33 6 40 4 40 -9 0 -9 7 -16 15 -16 18
0 65 21 65 29 0 3 -36 7 -80 9 -54 2 -80 -1 -80 -9z"/>
<path d="M3488 10743 c7 -3 16 -2 19 1 4 3 -2 6 -13 5 -11 0 -14 -3 -6 -6z"/>
<path d="M2896 10723 c-11 -11 -6 -23 9 -23 8 0 15 4 15 9 0 13 -16 22 -24 14z"/>
<path d="M3270 10700 c0 -5 9 -10 20 -10 11 0 20 5 20 10 0 6 -9 10 -20 10
-11 0 -20 -4 -20 -10z"/>
<path d="M2581 10684 c0 -11 3 -14 6 -6 3 7 2 16 -1 19 -3 4 -6 -2 -5 -13z"/>
<path d="M7910 10645 c0 -8 4 -15 10 -15 5 0 7 7 4 15 -4 8 -8 15 -10 15 -2 0
-4 -7 -4 -15z"/>
<path d="M5041 10614 c0 -11 3 -14 6 -6 3 7 2 16 -1 19 -3 4 -6 -2 -5 -13z"/>
<path d="M2241 10604 c0 -11 3 -14 6 -6 3 7 2 16 -1 19 -3 4 -6 -2 -5 -13z"/>
<path d="M6760 10601 c0 -6 4 -13 10 -16 6 -3 7 1 4 9 -7 18 -14 21 -14 7z"/>
<path d="M2578 10583 c7 -3 16 -2 19 1 4 3 -2 6 -13 5 -11 0 -14 -3 -6 -6z"/>
<path d="M2823 10550 c0 -25 2 -35 4 -22 2 12 2 32 0 45 -2 12 -4 2 -4 -23z"/>
<path d="M6740 10583 c0 -3 25 -56 57 -117 31 -61 78 -164 104 -231 46 -116
65 -146 33 -52 -11 34 -13 51 -5 66 6 11 11 26 10 33 0 7 -4 3 -10 -10 -9 -24
-29 -22 -29 4 0 8 -18 50 -40 94 -23 47 -37 86 -34 97 5 14 4 15 -4 4 -9 -12
-12 -10 -17 12 -4 15 -11 27 -15 27 -4 0 -15 18 -24 40 -14 36 -26 51 -26 33z"/>
<path d="M2570 10560 c0 -5 5 -10 10 -10 6 0 10 5 10 10 0 6 -4 10 -10 10 -5
0 -10 -4 -10 -10z"/>
<path d="M2231 10544 c0 -11 3 -14 6 -6 3 7 2 16 -1 19 -3 4 -6 -2 -5 -13z"/>
<path d="M2782 10530 c0 -14 2 -19 5 -12 2 6 2 18 0 25 -3 6 -5 1 -5 -13z"/>
<path d="M4970 10504 c0 -3 7 -12 15 -20 16 -17 18 -14 9 10 -6 15 -24 23 -24
10z"/>
<path d="M6845 10490 c-3 -5 -1 -10 4 -10 6 0 11 5 11 10 0 6 -2 10 -4 10 -3
0 -8 -4 -11 -10z"/>
<path d="M6845 10450 c-3 -5 -1 -10 4 -10 6 0 11 5 11 10 0 6 -2 10 -4 10 -3
0 -8 -4 -11 -10z"/>
<path d="M8065 10420 c3 -5 8 -10 11 -10 2 0 4 5 4 10 0 6 -5 10 -11 10 -5 0
-7 -4 -4 -10z"/>
<path d="M2181 10364 c0 -11 3 -14 6 -6 3 7 2 16 -1 19 -3 4 -6 -2 -5 -13z"/>
<path d="M8280 10222 c0 -12 14 -27 27 -29 17 -4 5 24 -13 31 -8 3 -14 2 -14
-2z"/>
<path d="M8370 10120 c-9 -6 -10 -10 -3 -10 6 0 15 5 18 10 8 12 4 12 -15 0z"/>
<path d="M6951 10105 c0 -6 7 -26 15 -45 l14 -35 -5 35 c-5 30 -26 70 -24 45z"/>
<path d="M8405 10090 c10 -11 20 -20 22 -20 2 0 -2 9 -9 20 -7 11 -17 20 -22
20 -5 0 -1 -9 9 -20z"/>
<path d="M7011 10064 c0 -11 3 -14 6 -6 3 7 2 16 -1 19 -3 4 -6 -2 -5 -13z"/>
<path d="M4901 10034 c0 -11 3 -14 6 -6 3 7 2 16 -1 19 -3 4 -6 -2 -5 -13z"/>
<path d="M6980 10010 c0 -5 5 -10 11 -10 5 0 7 5 4 10 -3 6 -8 10 -11 10 -2 0
-4 -4 -4 -10z"/>
<path d="M4905 9973 c-27 -138 -53 -790 -39 -963 l9 -111 -28 -27 c-34 -32
-93 -114 -89 -124 1 -5 -1 -7 -6 -7 -19 3 -26 -2 -13 -10 11 -7 9 -13 -8 -30
-11 -11 -22 -24 -23 -28 -2 -5 -7 -7 -11 -5 -5 1 -6 -2 -2 -8 3 -5 -7 -27 -23
-47 -16 -21 -41 -67 -56 -103 -39 -95 -91 -185 -107 -185 -8 -1 -13 -6 -11
-13 1 -7 -1 -11 -5 -11 -20 3 -31 -3 -52 -32 -13 -18 -19 -29 -12 -25 14 9 14
3 -1 -31 -7 -15 -40 -53 -72 -83 -109 -102 -140 -177 -95 -234 l22 -28 -22
-82 c-27 -102 -38 -203 -31 -281 5 -58 6 -56 12 40 7 110 32 242 54 290 l14
30 -6 -30 c-3 -16 -12 -59 -20 -95 -7 -36 -13 -110 -12 -165 l1 -100 8 86 c11
118 27 157 28 69 2 -115 13 -200 27 -200 7 0 15 -13 19 -30 4 -16 11 -32 16
-35 17 -11 9 -27 -11 -22 -11 3 -18 1 -14 -4 3 -5 13 -9 23 -9 26 0 61 -87 49
-119 -7 -20 -6 -22 6 -12 8 7 20 10 26 6 5 -3 10 -1 10 5 0 7 7 10 15 6 19 -7
47 3 39 15 -3 5 -3 9 0 9 12 0 44 -68 42 -90 -2 -14 -1 -17 1 -7 2 9 9 17 14
17 6 0 8 -4 5 -9 -3 -5 5 -11 18 -13 18 -4 26 0 30 16 3 11 0 23 -6 27 -6 4
-7 12 -3 19 4 6 -1 18 -11 26 -18 14 -18 14 6 12 14 -2 29 -7 33 -13 5 -6 6 5
3 23 -5 29 -3 32 19 32 28 0 32 12 10 30 -13 11 -12 15 6 31 25 22 59 25 77 7
10 -10 15 -10 21 1 6 8 19 12 35 9 14 -3 27 0 29 6 2 7 8 6 18 -3 8 -7 31 -22
51 -34 l37 -22 -86 1 c-76 1 -88 -1 -112 -22 -20 -18 -23 -26 -13 -32 7 -5 12
-15 10 -23 -2 -9 4 -13 15 -11 12 2 17 -2 15 -14 -5 -29 21 -27 34 3 11 27 12
25 19 -37 4 -36 13 -81 21 -100 l15 -35 0 48 c0 45 11 74 20 50 3 -8 10 -6 22
6 12 12 16 28 13 56 l-5 38 39 -7 c52 -10 132 -52 199 -105 51 -41 55 -47 55
-87 0 -49 -26 -281 -41 -369 -6 -33 -11 -67 -11 -75 -1 -20 -26 -134 -37 -162
-4 -13 -11 -36 -15 -53 -5 -27 -4 -26 16 10 12 22 32 72 45 110 13 39 20 54
17 35 -15 -86 -22 -116 -30 -135 -7 -17 -6 -18 8 -7 26 21 29 0 14 -75 -22
-103 -48 -155 -91 -182 -18 -11 -17 -12 10 -6 24 5 28 4 18 -6 -7 -7 -13 -18
-13 -24 1 -5 15 6 32 25 l31 35 -22 -39 c-12 -21 -20 -40 -18 -42 11 -11 49
13 67 43 35 59 33 30 -2 -32 -18 -33 -51 -77 -73 -99 l-39 -39 29 6 30 7 -40
-36 c-38 -34 -38 -35 -9 -20 40 19 104 92 144 162 26 47 50 69 50 47 0 -9 -50
-95 -68 -115 -8 -10 -11 -18 -6 -18 4 0 19 12 32 28 l23 27 -17 -35 c-9 -19
-35 -52 -57 -72 -22 -21 -35 -38 -28 -38 26 0 101 85 138 155 35 67 44 78 93
102 39 20 65 42 89 78 19 28 31 42 28 32 -4 -10 -7 -23 -7 -29 0 -5 -15 -24
-32 -41 -29 -26 -30 -30 -10 -25 27 7 27 2 1 -41 -26 -43 -14 -55 16 -16 13
16 27 26 31 23 12 -13 -5 -38 -41 -59 -19 -12 -35 -24 -35 -29 0 -18 54 6 96
43 25 22 57 42 71 43 25 3 71 49 108 109 56 89 137 206 141 203 2 -3 -3 -27
-11 -54 -18 -61 -18 -59 2 -43 28 23 -15 -45 -67 -103 -25 -29 -37 -49 -27
-45 9 4 24 10 34 14 11 4 14 3 9 -5 -16 -26 12 -10 49 29 40 40 95 75 95 60 0
-5 16 -7 35 -5 24 2 33 -1 29 -9 -5 -8 -2 -8 7 1 18 17 34 15 19 -3 -20 -24
-6 -17 30 15 31 28 58 34 32 8 -17 -17 -15 -28 6 -22 15 5 14 3 -2 -10 -29
-23 -13 -30 24 -11 26 14 34 14 41 4 8 -14 -6 -49 -25 -61 -8 -6 -7 -8 1 -8 7
0 16 6 20 14 8 13 45 36 58 36 3 0 3 -4 0 -10 -9 -15 1 -12 48 11 58 28 75 31
73 11 0 -9 -8 -20 -16 -24 -11 -5 -9 -7 7 -7 12 -1 29 6 37 15 9 8 28 17 43
20 l28 4 -25 -15 c-29 -17 -9 -20 23 -4 17 10 24 8 41 -13 29 -33 84 -71 126
-88 19 -7 42 -19 50 -25 8 -7 22 -16 30 -20 13 -8 13 -6 1 8 -12 15 -8 18 33
29 28 7 53 22 61 35 9 13 22 23 31 23 8 0 13 4 10 8 -3 5 24 41 60 80 59 65
69 94 20 57 -26 -19 -40 -19 -32 0 3 9 -10 4 -32 -13 -37 -29 -110 -62 -137
-62 -8 0 44 59 116 130 72 72 134 130 138 130 12 0 42 36 35 43 -3 3 4 3 16 0
19 -5 21 -3 16 14 -9 29 3 53 26 53 10 0 16 5 13 10 -4 6 -13 7 -23 1 -15 -8
-79 -15 -105 -12 -5 1 20 25 55 55 92 79 189 186 195 218 3 15 9 28 13 28 4 0
13 15 20 33 7 17 19 46 28 63 8 17 13 43 10 57 -3 15 -1 28 4 29 4 2 10 44 12
93 5 93 21 219 31 235 9 14 -6 60 -19 60 -23 0 -35 49 -26 110 5 33 11 63 13
67 3 4 12 69 21 143 13 99 15 152 8 200 -7 50 -6 72 6 100 16 39 35 161 35
230 1 25 -6 69 -15 99 l-16 54 77 -6 c52 -3 108 -16 167 -37 49 -18 103 -33
120 -34 17 -1 38 -7 47 -14 9 -8 24 -12 34 -9 17 4 16 5 -2 12 -11 4 -29 19
-41 33 -11 14 -27 26 -35 28 -8 1 -34 11 -59 22 -25 12 -83 30 -130 42 -97 25
-129 39 -90 40 60 0 245 -61 323 -107 13 -8 -96 150 -129 187 -18 19 -41 46
-53 60 -11 14 -20 20 -21 13 0 -7 13 -27 28 -45 16 -18 37 -44 48 -57 10 -13
25 -29 32 -36 6 -8 12 -16 12 -20 0 -3 -6 -3 -12 2 -7 4 -21 9 -30 10 -28 4
-213 54 -217 59 -2 2 3 4 12 4 10 0 17 7 17 14 0 8 12 27 26 43 15 16 23 35
20 46 -3 14 0 17 17 11 20 -6 21 -5 7 12 -19 25 -120 125 -145 144 -11 8 -43
31 -71 51 l-51 37 -6 -147 c-7 -184 -45 -347 -124 -541 -36 -87 -53 -116 -53
-89 0 7 -22 -33 -48 -91 -27 -58 -62 -130 -79 -160 -16 -30 -43 -80 -58 -110
-64 -124 -163 -266 -250 -359 -46 -50 -233 -181 -297 -209 -29 -12 -123 -1
-160 19 -10 5 -31 9 -48 9 -41 0 -155 46 -212 86 -64 45 -82 60 -157 131 -53
50 -66 69 -67 95 -2 37 12 71 26 63 6 -4 3 -16 -6 -30 -9 -14 -11 -26 -5 -29
5 -3 12 0 14 6 4 10 6 10 6 0 1 -7 -6 -15 -14 -18 -8 -4 -15 -11 -15 -16 0 -6
8 -7 17 -4 10 4 15 4 11 1 -11 -11 31 -45 47 -39 11 5 13 10 5 19 -7 9 -7 15
-1 19 5 4 16 -2 23 -11 17 -23 38 -27 38 -8 0 14 11 19 38 16 9 -2 12 19 10
84 -2 67 0 88 12 96 14 9 91 7 170 -5 19 -2 73 -5 120 -6 76 -1 100 4 223 44
142 46 181 65 232 112 l30 27 -35 -21 c-112 -67 -101 -65 -239 -54 -133 11
-342 6 -351 -7 -3 -4 -29 -11 -57 -15 -44 -6 -53 -4 -53 9 0 8 0 18 0 23 0 4
10 7 22 7 33 0 48 39 48 128 0 64 3 77 16 77 11 0 14 5 10 16 -3 9 -9 27 -12
40 -4 14 -16 27 -30 30 -13 3 -24 10 -24 14 0 5 -8 6 -19 3 -23 -6 -34 19 -21
53 9 23 11 24 26 10 8 -9 23 -15 32 -15 14 1 13 2 -2 6 -13 4 -15 7 -7 13 7 4
16 24 21 44 6 29 5 38 -8 45 -13 7 -14 12 -4 24 10 12 10 16 -3 20 -9 4 -12
13 -8 22 4 13 1 16 -18 13 -20 -2 -24 1 -22 20 2 13 -4 25 -12 28 -12 5 -14
15 -9 40 6 33 -8 48 -20 22 -3 -7 -3 12 -1 42 2 31 0 62 -6 70 -6 11 -9 5 -10
-20 -1 -28 -4 -22 -14 29 -7 35 -18 67 -24 71 -9 5 -8 10 3 19 11 9 12 20 5
47 -6 19 -7 43 -4 53 3 11 1 40 -6 65 -10 39 -9 50 5 71 19 29 21 55 4 55 -15
0 -38 45 -38 72 0 10 -4 18 -8 18 -4 0 -17 24 -27 53 -10 28 -25 63 -32 77 -7
14 -13 33 -13 42 0 9 -4 19 -9 22 -5 4 -26 35 -46 71 -20 36 -40 65 -45 65 -6
0 -10 6 -10 14 0 8 -11 28 -25 44 -14 17 -25 35 -25 41 0 6 -7 8 -15 5 -10 -4
-13 -2 -10 8 8 21 -106 91 -170 103 -39 8 -56 8 -58 1 -2 -6 -7 4 -11 22 -13
54 -24 36 -28 -45 -5 -103 1 -146 18 -139 17 6 20 -29 3 -39 -6 -4 -8 -14 -5
-22 3 -8 1 -11 -4 -8 -13 8 -24 -38 -15 -64 3 -12 2 -21 -2 -21 -11 0 -42 40
-95 123 -21 31 -40 57 -44 57 -11 0 6 -71 32 -127 22 -51 51 -93 91 -135 10
-12 12 -18 4 -18 -18 0 -31 -42 -17 -60 6 -8 -10 2 -35 23 -25 20 -49 37 -54
37 -7 0 -56 37 -86 65 -9 8 -21 15 -28 15 -30 0 60 -121 121 -161 42 -28 38
-45 -12 -41 -23 2 -23 1 -5 -8 17 -9 15 -9 -8 -5 -16 3 -35 1 -43 -6 -18 -14
-44 4 -44 32 0 25 -21 35 -34 17 -11 -15 -12 -172 -2 -333 6 -93 24 -204 39
-234 6 -13 12 -29 12 -35 1 -11 7 -27 30 -81 21 -48 29 -79 26 -94 -2 -12 0
-13 12 -2 13 10 16 9 22 -8 3 -12 4 -25 0 -31 -7 -11 14 -51 33 -63 6 -4 12
-13 12 -20 0 -17 -35 22 -61 68 -55 100 -89 175 -89 199 0 14 -4 26 -10 26 -5
0 -10 9 -10 21 0 11 -5 29 -10 39 -6 10 -11 32 -12 47 -1 15 -6 31 -11 34 -13
10 -39 169 -37 239 1 74 0 130 -3 545 -1 206 2 331 11 398 13 97 11 144 -3 70z
m422 -353 c1 -11 0 -20 -2 -20 -2 0 -9 9 -15 20 -8 15 -8 20 3 20 7 0 13 -9
14 -20z m-46 -197 c-12 -20 -14 -14 -5 12 4 9 9 14 11 11 3 -2 0 -13 -6 -23z
m-8 -100 c-5 -12 -3 -14 8 -8 8 4 11 5 7 0 -4 -4 -3 -15 4 -24 7 -9 1 -6 -11
5 -13 12 -20 27 -17 33 11 17 16 13 9 -6z m132 -421 c-3 -3 -11 0 -18 7 -9 10
-8 11 6 5 10 -3 15 -9 12 -12z m415 -322 c0 -5 -4 -10 -10 -10 -5 0 -10 5 -10
10 0 6 5 10 10 10 6 0 10 -4 10 -10z m20 -62 c0 -16 -3 -19 -11 -11 -6 6 -8
16 -5 22 11 17 16 13 16 -11z m-60 -104 c0 -8 -5 -12 -10 -9 -6 4 -8 11 -5 16
9 14 15 11 15 -7z m-223 -26 c-3 -8 -6 -5 -6 6 -1 11 2 17 5 13 3 -3 4 -12 1
-19z m263 11 c0 8 2 12 5 9 3 -3 2 -13 -1 -22 -5 -14 -9 -15 -15 -4 -5 7 -9
18 -9 23 0 6 5 3 10 -5 8 -12 10 -12 10 -1z m-80 -95 c0 -8 -5 -12 -10 -9 -6
4 -8 11 -5 16 9 14 15 11 15 -7z m63 -18 c4 -10 1 -13 -9 -9 -15 6 -19 23 -5
23 5 0 11 -7 14 -14z m-85 -21 c-3 -3 -9 2 -12 12 -6 14 -5 15 5 6 7 -7 10
-15 7 -18z m-371 -7 c-3 -8 -6 -5 -6 6 -1 11 2 17 5 13 3 -3 4 -12 1 -19z
m-187 -3 c7 -9 8 -15 2 -15 -5 0 -12 7 -16 15 -3 8 -4 15 -2 15 2 0 9 -7 16
-15z m564 -29 c-4 -19 -1 -25 20 -30 25 -6 37 -26 16 -26 -5 0 -10 5 -10 11 0
5 -4 8 -9 5 -15 -9 -33 22 -26 44 9 28 17 25 9 -4z m-74 10 c0 -2 -8 -10 -17
-17 -16 -13 -17 -12 -4 4 13 16 21 21 21 13z m-297 -36 c3 -11 1 -18 -4 -14
-5 3 -9 12 -9 20 0 20 7 17 13 -6z m307 -10 c0 -5 -2 -10 -4 -10 -3 0 -8 5
-11 10 -3 6 -1 10 4 10 6 0 11 -4 11 -10z m-405 -40 c3 -6 -1 -7 -9 -4 -18 7
-21 14 -7 14 6 0 13 -4 16 -10z m2014 -17 c0 -25 -1 -26 -9 -8 -12 27 -12 35
0 35 6 0 10 -12 9 -27z m-1644 -3 c3 -5 1 -10 -4 -10 -6 0 -11 5 -11 10 0 6 2
10 4 10 3 0 8 -4 11 -10z m205 -10 c0 -5 -4 -10 -10 -10 -5 0 -10 5 -10 10 0
6 5 10 10 10 6 0 10 -4 10 -10z m-360 -40 c0 -5 -4 -10 -9 -10 -6 0 -13 5 -16
10 -3 6 1 10 9 10 9 0 16 -4 16 -10z m-171 -44 c1 -6 -5 -1 -13 9 -8 11 -12
24 -8 29 5 9 20 -17 21 -38z m-965 -36 c-32 -81 -44 -94 -44 -51 0 21 11 49
32 77 17 24 33 43 34 41 2 -2 -8 -32 -22 -67z m1025 56 c9 -10 7 -17 -6 -27
-16 -13 -17 -12 -4 4 9 11 10 17 2 17 -6 0 -11 5 -11 10 0 14 5 13 19 -4z
m146 -14 c-3 -3 -11 0 -18 7 -9 10 -8 11 6 5 10 -3 15 -9 12 -12z m-91 -9 c3
-7 2 -13 -3 -13 -5 0 -14 6 -20 13 -8 10 -7 14 4 14 8 0 16 -6 19 -14z m-85
-20 c0 -25 -1 -25 -8 -8 -5 11 -7 23 -4 28 8 14 13 7 12 -20z m249 -19 c-4 -3
-12 5 -18 18 -12 22 -12 22 6 6 10 -10 15 -20 12 -24z m-93 -23 c-3 -6 -11
-11 -16 -11 -5 0 -4 6 3 14 14 16 24 13 13 -3z m36 -18 c13 -16 12 -17 -3 -4
-10 7 -18 15 -18 17 0 8 8 3 21 -13z m-141 -13 c0 -5 -2 -10 -4 -10 -3 0 -8 5
-11 10 -3 6 -1 10 4 10 6 0 11 -4 11 -10z m25 -9 c-3 -11 -1 -22 5 -26 6 -4
10 5 11 22 0 15 3 22 6 15 3 -7 2 -24 -1 -38 -6 -21 -9 -24 -21 -14 -15 13
-17 60 -2 60 5 0 6 -9 2 -19z m99 -98 c-17 -27 -29 -25 -30 5 -1 15 1 21 3 15
3 -7 9 -13 15 -13 6 0 7 8 3 18 -5 14 -4 15 7 4 9 -9 10 -17 2 -29z m221 17
c3 -5 2 -10 -4 -10 -5 0 -13 5 -16 10 -3 6 -2 10 4 10 5 0 13 -4 16 -10z
m-265 -10 c0 -5 -2 -10 -4 -10 -3 0 -8 5 -11 10 -3 6 -1 10 4 10 6 0 11 -4 11
-10z m270 -60 c0 -5 -4 -10 -10 -10 -5 0 -10 5 -10 10 0 6 5 10 10 10 6 0 10
-4 10 -10z m80 -110 c0 -22 -4 -40 -10 -40 -5 0 -10 18 -10 40 0 22 5 40 10
40 6 0 10 -18 10 -40z m-190 -28 c0 -15 -2 -15 -10 -2 -13 20 -13 33 0 25 6
-3 10 -14 10 -23z m-790 -253 c0 -4 -7 -6 -15 -3 -8 4 -15 10 -15 15 0 4 7 6
15 3 8 -4 15 -10 15 -15z m178 -69 c25 -12 31 -46 6 -36 -9 3 -19 6 -22 6 -12
0 -59 64 -66 90 -7 22 -4 21 26 -12 18 -20 43 -41 56 -48z m-7 38 c16 -29 2
-21 -22 15 -17 23 -18 28 -6 18 10 -8 23 -23 28 -33z m-371 -86 c0 -21 -2 -24
-10 -12 -13 20 -13 53 0 45 6 -3 10 -18 10 -33z m2519 -63 c-10 -47 -15 -56
-19 -38 -6 24 18 114 28 105 2 -3 -2 -33 -9 -67z m-2695 35 c3 -8 2 -12 -4 -9
-6 3 -10 10 -10 16 0 14 7 11 14 -7z m2667 -291 c-29 -74 -98 -194 -121 -208
-18 -11 -10 10 15 39 24 27 29 40 26 59 -1 4 14 40 33 80 19 40 42 90 52 112
32 74 28 4 -5 -82z m-304 -85 c-3 -8 -6 -5 -6 6 -1 11 2 17 5 13 3 -3 4 -12 1
-19z m-32 -60 c-22 -68 -33 -79 -30 -30 2 36 32 98 42 88 3 -3 -3 -29 -12 -58z
m138 -21 c-23 -46 -49 -77 -57 -69 -4 3 -4 -1 0 -11 3 -10 1 -17 -5 -17 -6 0
-10 -4 -8 -8 2 -8 -58 -82 -66 -82 -3 0 -22 -16 -43 -35 -20 -19 -40 -33 -42
-30 -6 6 79 85 91 85 5 0 5 5 1 11 -3 6 -3 14 2 18 5 3 14 13 19 22 45 73 89
128 98 122 6 -4 8 2 5 15 -4 15 -2 19 8 15 11 -4 11 -11 -3 -36z m-176 -42
c-1 -14 -5 -25 -10 -25 -9 0 -10 9 -3 33 6 26 15 21 13 -8z m-48 -27 c-12 -43
-12 -45 6 -22 8 10 15 14 15 8 0 -6 -7 -17 -15 -24 -8 -7 -15 -18 -15 -25 0
-7 -9 -23 -21 -36 -18 -21 -20 -21 -14 -4 4 11 11 36 15 55 6 34 27 80 35 80
2 0 -1 -15 -6 -32z m51 -68 c0 -5 -5 -10 -11 -10 -5 0 -7 5 -4 10 3 6 8 10 11
10 2 0 4 -4 4 -10z m-61 -72 c-6 -12 -18 -27 -26 -31 -8 -5 -11 -16 -8 -26 3
-11 -13 -32 -55 -69 -61 -54 -85 -59 -30 -7 17 16 30 33 30 38 0 16 90 128 98
122 2 -2 -2 -14 -9 -27z m-1492 0 c-3 -8 -6 -5 -6 6 -1 11 2 17 5 13 3 -3 4
-12 1 -19z m558 -88 c-4 -17 -9 -30 -11 -27 -2 2 -1 18 2 36 4 17 9 30 11 27
3 -2 2 -19 -2 -36z m-276 -29 c-6 -18 -13 -30 -15 -28 -2 2 1 18 7 36 6 18 13
30 15 28 2 -2 -1 -18 -7 -36z m315 -50 c-15 -34 -29 -59 -31 -57 -3 2 8 32 23
65 15 34 29 59 31 57 3 -2 -8 -32 -23 -65z m-567 17 c-3 -7 -5 -2 -5 12 0 14
2 19 5 13 2 -7 2 -19 0 -25z m510 0 c-3 -8 -6 -5 -6 6 -1 11 2 17 5 13 3 -3 4
-12 1 -19z m-522 -58 c-4 -17 -9 -30 -11 -27 -2 2 -1 18 2 36 4 17 9 30 11 27
3 -2 2 -19 -2 -36z m506 13 c-12 -20 -14 -14 -5 12 4 9 9 14 11 11 3 -2 0 -13
-6 -23z m142 -8 c-3 -9 -8 -14 -10 -11 -3 3 -2 9 2 15 9 16 15 13 8 -4z m97
-5 c-6 -11 -13 -20 -16 -20 -2 0 0 9 6 20 6 11 13 20 16 20 2 0 0 -9 -6 -20z
m111 -23 c-10 -9 -11 -8 -5 6 3 10 9 15 12 12 3 -3 0 -11 -7 -18z m-370 -14
c-12 -20 -14 -14 -5 12 4 9 9 14 11 11 3 -2 0 -13 -6 -23z m320 -16 c-13 -12
-20 -15 -16 -7 14 26 28 41 33 35 3 -3 -5 -16 -17 -28z m-595 -54 c-13 -26
-39 -64 -56 -83 -18 -19 -28 -28 -22 -20 5 8 12 28 16 44 4 15 22 45 41 65 19
20 35 40 35 45 0 5 3 7 6 4 3 -3 -6 -28 -20 -55z m1023 33 c-2 -1 -19 -8 -36
-14 -37 -12 -45 -6 -10 8 22 9 54 13 46 6z m-797 -73 c-11 -21 -32 -49 -47
-63 -22 -20 -18 -11 16 41 48 72 61 82 31 22z m-114 -44 c-12 -22 -24 -36 -26
-30 -5 14 26 71 39 71 6 0 0 -18 -13 -41z"/>
<path d="M6997 9965 c2 -11 26 -108 54 -215 45 -177 89 -376 108 -488 7 -39
21 -69 21 -45 0 14 -28 168 -40 218 -36 156 -93 388 -105 431 -8 28 -15 60
-15 72 0 12 -4 22 -9 22 -5 0 -11 6 -14 13 -2 6 -2 3 0 -8z"/>
<path d="M5898 9893 c-28 -50 -41 -131 -35 -222 5 -87 24 -161 90 -347 21 -57
42 -144 50 -200 l13 -99 19 98 c18 103 18 101 -5 452 -15 220 -49 345 -95 345
-12 0 -27 -11 -37 -27z"/>
<path d="M6658 9820 c-3 -8 -3 -58 0 -111 3 -66 1 -98 -7 -103 -6 -4 -11 0
-12 11 -1 21 -41 -191 -43 -227 0 -14 -5 -28 -11 -32 -6 -5 -6 -11 2 -19 9 -9
15 -3 28 26 9 23 12 41 6 44 -13 8 13 141 29 151 10 6 15 43 18 122 4 117 1
166 -10 138z m-51 -432 c-3 -8 -6 -5 -6 6 -1 11 2 17 5 13 3 -3 4 -12 1 -19z"/>
<path d="M8710 9760 c0 -5 5 -10 11 -10 5 0 7 5 4 10 -3 6 -8 10 -11 10 -2 0
-4 -4 -4 -10z"/>
<path d="M6642 9730 c0 -14 2 -19 5 -12 2 6 2 18 0 25 -3 6 -5 1 -5 -13z"/>
<path d="M5201 9644 c0 -11 3 -14 6 -6 3 7 2 16 -1 19 -3 4 -6 -2 -5 -13z"/>
<path d="M6781 9554 c0 -11 3 -14 6 -6 3 7 2 16 -1 19 -3 4 -6 -2 -5 -13z"/>
<path d="M6801 9554 c0 -11 3 -14 6 -6 3 7 2 16 -1 19 -3 4 -6 -2 -5 -13z"/>
<path d="M5196 9525 c8 -37 14 -45 14 -19 0 10 -5 26 -10 34 -8 11 -9 7 -4
-15z"/>
<path d="M6761 9489 c-6 -18 -9 -34 -7 -36 2 -2 9 10 15 28 6 18 9 34 7 36 -2
2 -9 -10 -15 -28z"/>
<path d="M6243 9498 c-20 -26 -97 -353 -87 -369 9 -14 25 0 40 36 11 27 42
169 69 318 5 28 -6 36 -22 15z m-36 -220 c-3 -7 -5 -2 -5 12 0 14 2 19 5 13 2
-7 2 -19 0 -25z"/>
<path d="M6642 9490 c0 -14 2 -19 5 -12 2 6 2 18 0 25 -3 6 -5 1 -5 -13z"/>
<path d="M6765 9438 c-11 -25 -14 -28 -15 -13 -1 15 -5 11 -15 -14 -20 -44
-19 -54 3 -40 10 7 26 31 35 55 19 51 13 59 -8 12z m-24 -51 c-10 -9 -11 -8
-5 6 3 10 9 15 12 12 3 -3 0 -11 -7 -18z"/>
<path d="M5680 9424 c0 -3 11 -20 24 -37 14 -18 34 -56 45 -85 51 -128 109
-208 134 -183 22 22 -66 196 -136 269 -36 37 -67 54 -67 36z"/>
<path d="M9010 9406 c0 -2 7 -6 15 -10 8 -3 15 -1 15 4 0 6 -7 10 -15 10 -8 0
-15 -2 -15 -4z"/>
<path d="M5151 9283 c-7 -8 -10 -17 -7 -20 9 -9 29 13 25 25 -2 6 -10 3 -18
-5z"/>
<path d="M6985 9201 c-17 -16 -159 -61 -211 -67 -91 -10 -95 -12 -82 -33 9
-15 9 -23 -1 -35 -17 -21 -45 -1 -38 26 13 47 -73 -9 -149 -97 -48 -55 -115
-148 -110 -152 1 -2 24 17 50 42 44 40 215 133 336 181 22 9 40 20 40 26 0 5
4 7 9 4 16 -11 78 23 127 69 27 25 46 45 43 45 -3 0 -9 -4 -14 -9z"/>
<path d="M5816 8985 c4 -8 8 -15 10 -15 2 0 4 7 4 15 0 8 -4 15 -10 15 -5 0
-7 -7 -4 -15z"/>
<path d="M4901 8974 c0 -11 3 -14 6 -6 3 7 2 16 -1 19 -3 4 -6 -2 -5 -13z"/>
<path d="M4920 8829 c0 -5 5 -7 10 -4 6 3 10 8 10 11 0 2 -4 4 -10 4 -5 0 -10
-5 -10 -11z"/>
<path d="M6485 8517 c-20 -47 -40 -169 -32 -190 4 -10 12 -14 22 -11 11 5 15
24 17 83 2 108 3 115 12 129 4 8 5 16 2 19 -3 3 -13 -10 -21 -30z"/>
<path d="M5880 8526 c0 -3 4 -16 10 -30 12 -33 30 -33 30 0 0 14 -4 23 -10 19
-5 -3 -10 -1 -10 4 0 6 -4 11 -10 11 -5 0 -10 -2 -10 -4z"/>
<path d="M6613 8458 c-11 -13 -33 -47 -47 -76 -22 -43 -25 -57 -15 -68 13 -16
39 -2 39 22 0 7 11 39 25 70 29 66 29 85 -2 52z"/>
<path d="M6917 8442 c-9 -10 -19 -45 -23 -77 -4 -33 -13 -78 -21 -99 -11 -34
-11 -42 1 -54 12 -13 20 -9 58 30 58 58 77 146 42 196 -18 27 -36 28 -57 4z
m8 -52 c-4 -12 -9 -19 -12 -17 -3 3 -2 15 2 27 4 12 9 19 12 17 3 -3 2 -15 -2
-27z"/>
<path d="M7670 8409 c0 -5 5 -7 10 -4 6 3 10 8 10 11 0 2 -4 4 -10 4 -5 0 -10
-5 -10 -11z"/>
<path d="M6643 8284 c-31 -16 -42 -37 -25 -48 4 -3 19 2 33 9 13 8 34 19 46
24 11 5 24 15 28 20 10 17 -45 13 -82 -5z"/>
<path d="M5990 8216 c0 -30 5 -58 10 -61 6 -3 10 -11 10 -16 0 -6 -5 -7 -11
-3 -7 4 -10 1 -7 -7 3 -8 11 -13 17 -11 6 1 11 -2 11 -7 0 -13 57 -31 75 -25
22 9 19 27 -15 94 -16 33 -30 66 -30 75 0 10 -10 15 -30 15 -30 0 -30 -1 -30
-54z"/>
<path d="M6231 8233 c-6 -21 -11 -42 -11 -48 0 -5 -7 -23 -15 -39 -15 -29 -14
-56 2 -56 16 0 81 65 88 87 8 28 -19 93 -39 93 -9 0 -19 -15 -25 -37z"/>
<path d="M6826 8184 c-11 -8 -16 -14 -10 -14 13 0 39 18 34 24 -3 2 -14 -2
-24 -10z"/>
<path d="M6181 8154 c0 -11 3 -14 6 -6 3 7 2 16 -1 19 -3 4 -6 -2 -5 -13z"/>
<path d="M6110 8146 c0 -9 5 -16 10 -16 6 0 10 4 10 9 0 6 -4 13 -10 16 -5 3
-10 -1 -10 -9z"/>
<path d="M5981 8068 c2 -30 3 -35 6 -15 2 15 9 27 15 27 5 0 7 -7 4 -16 -5
-14 -4 -15 9 -4 17 14 13 25 -16 40 -17 10 -19 7 -18 -32z"/>
<path d="M10801 8014 c0 -11 3 -14 6 -6 3 7 2 16 -1 19 -3 4 -6 -2 -5 -13z"/>
<path d="M5990 8006 c0 -17 27 -29 35 -16 4 6 3 15 0 20 -9 15 -35 12 -35 -4z"/>
<path d="M6055 8001 c-3 -5 -1 -12 5 -16 5 -3 10 1 10 9 0 18 -6 21 -15 7z"/>
<path d="M10815 7970 c-4 -11 -11 -18 -16 -15 -5 4 -9 2 -9 -3 0 -5 11 -9 23
-9 20 0 23 4 19 23 -5 29 -9 30 -17 4z"/>
<path d="M10851 7964 c0 -11 3 -14 6 -6 3 7 2 16 -1 19 -3 4 -6 -2 -5 -13z"/>
<path d="M5995 7959 c-10 -15 3 -25 16 -12 7 7 7 13 1 17 -6 3 -14 1 -17 -5z"/>
<path d="M6048 7933 c7 -3 16 -2 19 1 4 3 -2 6 -13 5 -11 0 -14 -3 -6 -6z"/>
<path d="M10786 7915 c-3 -8 4 -11 17 -10 12 1 28 3 35 4 6 0 12 5 12 9 0 13
-59 10 -64 -3z"/>
<path d="M10814 7881 c4 -5 1 -12 -4 -14 -6 -3 -5 -4 2 -3 15 3 23 26 8 26 -6
0 -9 -4 -6 -9z"/>
<path d="M10762 7849 c31 -25 48 -29 48 -9 0 5 -10 12 -21 15 -14 5 -18 10
-10 14 7 4 -2 8 -19 8 l-30 0 32 -28z"/>
<path d="M10893 7833 c-3 -10 -13 -26 -21 -36 -14 -16 -14 -20 7 -40 22 -21
23 -21 21 -2 -4 34 0 46 10 40 6 -4 10 7 10 24 0 34 -17 42 -27 14z"/>
<path d="M11426 7841 c-4 -7 -5 -15 -2 -18 9 -9 19 4 14 18 -4 11 -6 11 -12 0z"/>
<path d="M6008 7753 c6 -2 18 -2 25 0 6 3 1 5 -13 5 -14 0 -19 -2 -12 -5z"/>
<path d="M11403 7735 c-9 -24 1 -27 15 -5 8 13 8 20 2 20 -6 0 -13 -7 -17 -15z"/>
<path d="M11381 7684 c0 -11 3 -14 6 -6 3 7 2 16 -1 19 -3 4 -6 -2 -5 -13z"/>
<path d="M5740 7556 c0 -15 49 -51 58 -42 6 7 -37 56 -50 56 -4 0 -8 -6 -8
-14z"/>
<path d="M11220 7555 c0 -8 4 -15 10 -15 5 0 7 7 4 15 -4 8 -8 15 -10 15 -2 0
-4 -7 -4 -15z"/>
<path d="M11175 7536 c31 -27 55 -34 55 -16 0 6 -7 10 -15 10 -9 0 -28 7 -43
16 -26 15 -26 15 3 -10z"/>
<path d="M5815 7500 c3 -5 8 -10 11 -10 2 0 4 5 4 10 0 6 -5 10 -11 10 -5 0
-7 -4 -4 -10z"/>
<path d="M11297 7473 c-7 -11 10 -40 18 -31 4 4 3 14 -3 24 -5 9 -12 12 -15 7z"/>
<path d="M5890 7449 c0 -5 5 -7 10 -4 6 3 10 8 10 11 0 2 -4 4 -10 4 -5 0 -10
-5 -10 -11z"/>
<path d="M4252 7385 c0 -16 2 -22 5 -12 2 9 2 23 0 30 -3 6 -5 -1 -5 -18z"/>
<path d="M4260 7334 c0 -11 7 -29 15 -40 19 -25 19 -15 0 27 -10 25 -14 29
-15 13z"/>
<path d="M4335 7209 c3 -9 19 -25 35 -37 21 -16 27 -27 23 -44 -4 -18 -3 -20
6 -8 12 16 15 58 4 46 -4 -3 -22 8 -40 26 -19 18 -31 26 -28 17z"/>
<path d="M4656 7190 c7 -28 12 -35 18 -29 2 2 -2 15 -10 29 l-15 25 7 -25z"/>
<path d="M4462 7178 c-5 -20 -6 -20 -12 -4 -4 14 -14 -2 -32 -55 -15 -41 -29
-87 -33 -104 -12 -58 -26 -107 -30 -103 -2 2 3 30 11 63 14 61 18 102 9 93 -3
-2 -10 -29 -16 -59 -6 -30 -15 -72 -20 -94 -5 -22 -22 -110 -38 -197 -28 -155
-32 -167 -97 -268 -16 -25 -16 -25 2 -4 42 47 64 79 64 92 0 7 4 11 9 7 6 -3
9 -13 9 -23 -1 -9 2 -30 6 -46 5 -21 10 -26 18 -18 8 8 8 15 0 25 -9 11 -9 24
3 57 18 52 18 50 0 50 -8 0 -15 -9 -15 -21 0 -11 -4 -18 -8 -15 -4 3 -4 30 2
60 6 34 13 51 18 43 16 -25 33 19 68 180 22 101 63 260 75 286 4 9 3 17 -2 17
-6 0 -27 -71 -48 -157 -21 -87 -44 -178 -51 -203 l-13 -45 5 50 c3 36 2 44 -5
30 -8 -18 -10 -16 -10 10 -1 35 18 73 20 40 0 -11 16 36 34 105 39 149 54 192
65 185 4 -3 15 6 24 20 10 15 12 25 5 25 -6 0 -13 -10 -17 -22z m-135 -425
c-3 -10 -5 -4 -5 12 0 17 2 24 5 18 2 -7 2 -21 0 -30z"/>
<path d="M4570 7109 c0 -5 5 -7 10 -4 6 3 10 8 10 11 0 2 -4 4 -10 4 -5 0 -10
-5 -10 -11z"/>
<path d="M5041 7104 c0 -11 3 -14 6 -6 3 7 2 16 -1 19 -3 4 -6 -2 -5 -13z"/>
<path d="M4882 7094 c-7 -8 -8 -14 -2 -14 5 0 10 -6 10 -14 0 -7 9 -16 20 -19
16 -4 19 0 18 18 -3 30 -29 47 -46 29z"/>
<path d="M4555 7080 c-3 -5 -1 -10 4 -10 6 0 11 5 11 10 0 6 -2 10 -4 10 -3 0
-8 -4 -11 -10z"/>
<path d="M4567 6980 c-3 -11 -2 -22 3 -25 4 -3 10 6 12 20 6 30 -7 34 -15 5z"/>
<path d="M4503 6763 c-24 -25 -17 -31 11 -10 11 8 17 18 15 23 -2 5 -14 -1
-26 -13z"/>
<path d="M4384 6725 c-7 -19 -14 -57 -14 -84 0 -31 -6 -55 -15 -65 -17 -17
-20 -30 -5 -21 6 4 10 -5 10 -20 0 -15 4 -24 10 -20 6 3 7 -1 4 -10 -6 -14 -8
-14 -20 2 -7 10 -14 13 -14 6 0 -6 5 -15 10 -18 6 -3 10 -45 10 -93 0 -76 19
-229 37 -301 5 -20 3 -23 -11 -18 -9 4 -16 2 -16 -3 0 -25 -19 -6 -28 28 l-11
37 2 -39 c2 -35 -1 -40 -25 -47 -16 -4 -45 -21 -66 -38 -36 -28 -44 -30 -113
-28 -69 2 -78 0 -108 -25 -49 -42 -148 -60 -189 -34 -7 4 -16 5 -19 2 -4 -3
-1 -6 5 -6 7 0 12 -4 12 -10 0 -5 -11 -10 -25 -10 -18 0 -31 -10 -45 -33 -33
-55 -116 -79 -127 -37 -5 17 -11 20 -42 14 -20 -3 -55 -12 -79 -20 -23 -8 -51
-14 -61 -14 -10 0 -21 -3 -25 -7 -15 -15 -36 -10 -36 8 0 10 -5 19 -11 19 -7
0 -9 9 -6 21 4 16 3 19 -5 11 -7 -7 -7 -20 1 -43 6 -18 8 -36 4 -39 -5 -4 -91
-31 -193 -60 -102 -29 -243 -70 -313 -92 -71 -21 -135 -38 -143 -38 -9 0 -32
12 -51 28 -33 24 -45 27 -117 27 -45 0 -96 -6 -114 -12 -17 -7 -46 -18 -62
-24 -38 -14 -38 -32 0 -116 17 -36 39 -102 50 -146 10 -44 23 -84 28 -89 11
-11 141 32 191 63 37 22 67 68 83 125 l11 42 176 50 c97 28 230 66 296 85 179
51 175 51 175 28 0 -11 2 -25 3 -33 2 -7 1 -8 -2 -3 -2 6 -11 -26 -18 -70 -19
-111 -19 -120 -8 -120 6 0 10 9 11 20 1 33 16 65 26 59 9 -6 113 27 151 47 10
6 28 8 40 5 12 -3 16 -3 10 0 -20 9 -15 24 6 24 11 0 23 5 26 11 4 6 13 8 21
5 7 -3 16 -2 18 3 3 4 32 16 66 26 33 10 60 22 60 27 0 4 7 8 15 8 8 0 20 9
27 20 8 12 24 20 40 20 32 0 38 24 11 35 -17 7 -16 8 2 15 16 7 12 9 -22 15
-24 4 -43 11 -43 16 0 4 19 13 43 19 73 19 112 32 125 43 7 5 15 7 18 4 4 -3
20 15 38 41 48 72 130 89 181 38 11 -11 22 -12 43 -6 15 5 49 16 75 24 l48 15
65 -67 c35 -36 64 -70 64 -73 0 -4 7 -10 16 -13 10 -4 7 4 -9 24 -28 33 -91
139 -86 144 2 2 14 6 25 10 18 6 27 -2 53 -49 17 -30 37 -55 43 -55 9 0 9 3 1
11 -6 6 -9 17 -7 24 3 7 0 16 -7 21 -8 4 -10 3 -5 -4 4 -7 5 -12 2 -12 -4 0
-36 59 -36 68 0 2 8 -2 17 -9 12 -10 14 -10 9 -1 -4 7 0 14 11 18 10 3 25 9
34 14 9 5 34 12 55 16 22 3 47 11 57 16 12 6 23 5 33 -3 11 -9 14 -9 14 1 0 8
7 21 16 31 9 10 14 25 11 33 -8 21 -49 46 -78 47 -32 1 -161 -31 -176 -43 -9
-7 -13 -6 -13 3 0 11 -2 11 -10 -1 -8 -11 -9 -7 -4 14 7 31 -14 136 -28 136
-12 0 -10 -34 3 -47 7 -7 7 -21 1 -44 l-9 -34 -9 55 c-4 30 -10 47 -12 38 -2
-10 2 -44 9 -75 9 -46 13 -54 20 -38 7 17 8 18 8 2 1 -15 -33 -37 -58 -37 -14
0 -41 160 -47 276 -5 90 -3 112 10 129 15 19 15 19 16 -13 0 -20 4 -31 10 -27
6 3 8 25 5 48 -4 32 -3 37 5 22 l10 -20 -3 20 c-2 12 -10 19 -19 19 -14 -1
-16 5 -12 30 5 25 3 28 -6 16 -15 -19 -5 124 11 149 8 12 9 7 6 -21 -1 -21 1
-38 5 -38 4 0 8 4 8 8 0 5 11 14 25 20 14 6 25 17 25 23 0 8 -7 6 -18 -4 -25
-23 -32 -21 -32 8 0 36 -19 31 -36 -10z m70 -777 c21 -41 20 -46 -4 -20 -11
12 -20 28 -20 37 0 23 7 18 24 -17z m-641 -175 c-7 -2 -19 -2 -25 0 -7 3 -2 5
12 5 14 0 19 -2 13 -5z m40 -20 c-13 -2 -23 -9 -23 -14 0 -6 -5 -7 -10 -4 -17
11 0 25 28 24 24 -2 24 -2 5 -6z m-23 -43 c0 -5 -17 -9 -37 -9 l-38 2 35 7
c19 4 36 8 38 9 1 0 2 -3 2 -9z"/>
<path d="M4256 6419 c-18 -84 -16 -166 4 -154 5 3 11 -14 13 -37 3 -24 4 16 2
87 -1 72 1 121 6 110 7 -18 8 -17 7 5 0 14 -3 36 -7 50 -6 20 -11 7 -25 -61z
m1 -121 c-3 -7 -5 -2 -5 12 0 14 2 19 5 13 2 -7 2 -19 0 -25z"/>
<path d="M86 6454 c-9 -8 -16 -23 -15 -32 0 -14 3 -13 16 6 27 39 52 23 74
-47 6 -23 7 -22 8 12 1 21 -4 47 -9 58 -13 23 -53 25 -74 3z"/>
<path d="M4344 6345 c0 -66 1 -92 3 -57 2 34 2 88 0 120 -2 31 -3 3 -3 -63z"/>
<path d="M4305 6399 c-8 -25 4 -190 16 -228 5 -16 6 3 2 49 -4 41 -7 103 -6
138 1 66 -2 75 -12 41z"/>
<path d="M4411 6319 c0 -30 4 -72 9 -94 6 -28 7 -13 3 50 -6 101 -13 126 -12
44z"/>
<path d="M6964 6351 c-30 -19 -52 -41 -39 -41 21 0 75 32 75 44 0 20 1 20 -36
-3z"/>
<path d="M4632 6315 c0 -16 2 -22 5 -12 2 9 2 23 0 30 -3 6 -5 -1 -5 -18z"/>
<path d="M6125 6240 c-3 -5 -2 -10 4 -10 5 0 13 5 16 10 3 6 2 10 -4 10 -5 0
-13 -4 -16 -10z"/>
<path d="M120 6233 c0 -5 11 -27 25 -51 13 -23 22 -49 19 -56 -6 -15 38 -52
94 -80 19 -10 53 -32 77 -51 53 -40 93 -50 140 -35 54 18 97 102 59 117 -8 3
-13 12 -10 19 8 20 -7 17 -49 -7 -33 -20 -40 -20 -83 -9 -26 7 -51 16 -57 20
-5 4 -21 10 -35 13 -14 4 -44 22 -66 41 -41 35 -58 38 -47 8 12 -31 -17 -1
-37 39 -19 37 -30 48 -30 32z m132 -163 c6 0 8 -3 5 -6 -10 -10 -87 44 -87 61
0 4 16 -7 35 -24 20 -17 41 -31 47 -31z"/>
<path d="M4352 6195 c-1 -11 3 -38 7 -60 7 -34 9 -35 9 -10 0 35 -15 101 -16
70z"/>
<path d="M4432 6160 c0 -14 2 -19 5 -12 2 6 2 18 0 25 -3 6 -5 1 -5 -13z"/>
<path d="M3496 6013 c-4 -9 -2 -21 4 -27 7 -7 10 -2 10 17 0 31 -5 34 -14 10z"/>
<path d="M3511 5954 c0 -11 3 -14 6 -6 3 7 2 16 -1 19 -3 4 -6 -2 -5 -13z"/>
<path d="M1401 5933 c-54 -28 -111 -88 -174 -184 -50 -76 -67 -121 -68 -179
-2 -66 7 -73 21 -19 13 47 45 99 61 99 12 0 68 63 96 109 16 27 29 36 55 39
59 7 112 7 158 0 25 -4 38 -4 30 -1 -32 12 -71 59 -81 98 -11 40 -25 65 -38
65 -4 0 -31 -12 -60 -27z"/>
<path d="M3350 5926 c0 -8 4 -17 9 -20 10 -7 23 19 14 28 -11 11 -23 6 -23 -8z"/>
<path d="M3438 5933 c6 -2 18 -2 25 0 6 3 1 5 -13 5 -14 0 -19 -2 -12 -5z"/>
<path d="M4704 5926 c-5 -14 23 -77 48 -106 34 -39 48 -39 17 0 -43 53 -63 89
-55 98 3 3 7 3 9 1 1 -2 19 -23 39 -46 28 -31 38 -38 42 -26 4 9 -1 17 -11 20
-10 2 -29 20 -43 38 -27 38 -38 42 -46 21z"/>
<path d="M6550 5930 c-20 -6 -21 -8 -5 -8 11 0 31 4 45 8 20 6 21 8 5 8 -11 0
-31 -4 -45 -8z"/>
<path d="M7110 5905 c24 -8 46 -13 48 -11 5 5 -59 26 -77 25 -9 0 4 -7 29 -14z"/>
<path d="M4801 5894 c0 -11 3 -14 6 -6 3 7 2 16 -1 19 -3 4 -6 -2 -5 -13z"/>
<path d="M4630 5880 c0 -5 5 -10 10 -10 6 0 10 5 10 10 0 6 -4 10 -10 10 -5 0
-10 -4 -10 -10z"/>
<path d="M4588 5873 c6 -2 12 -9 12 -14 0 -6 5 -15 10 -22 6 -7 19 -23 30 -37
10 -14 19 -19 20 -12 0 6 -4 12 -10 12 -5 0 -10 8 -10 18 0 18 -41 63 -56 61
-5 0 -3 -3 4 -6z"/>
<path d="M4820 5876 c0 -2 11 -6 25 -8 14 -3 25 -1 25 3 0 5 -11 9 -25 9 -14
0 -25 -2 -25 -4z"/>
<path d="M7208 5873 c7 -3 16 -2 19 1 4 3 -2 6 -13 5 -11 0 -14 -3 -6 -6z"/>
<path d="M4655 5850 c3 -5 8 -10 11 -10 2 0 4 5 4 10 0 6 -5 10 -11 10 -5 0
-7 -4 -4 -10z"/>
<path d="M4691 5841 c-10 -7 -8 -14 10 -36 13 -15 38 -34 54 -42 25 -13 23 -9
-13 22 -25 22 -41 43 -38 51 6 16 5 17 -13 5z"/>
<path d="M1630 5785 c0 -3 5 -11 10 -18 6 -7 27 -33 47 -59 19 -27 39 -48 42
-48 4 0 13 17 20 37 12 33 12 38 -5 50 -11 7 -27 20 -37 28 -16 14 -77 21 -77
10z"/>
<path d="M7447 5736 c29 -18 70 -49 93 -69 50 -46 61 -47 23 -3 -26 31 -139
106 -159 106 -5 0 14 -15 43 -34z"/>
<path d="M1761 5644 c0 -11 3 -14 6 -6 3 7 2 16 -1 19 -3 4 -6 -2 -5 -13z"/>
<path d="M1903 5563 c9 -2 25 -2 35 0 9 3 1 5 -18 5 -19 0 -27 -2 -17 -5z"/>
<path d="M775 5534 c-133 -16 -438 -40 -632 -50 l-143 -7 0 -432 0 -432 233
-6 c127 -2 329 -4 447 -3 l215 1 68 100 c45 66 67 109 67 128 0 16 5 59 12 94
13 71 29 86 81 76 22 -4 27 -2 27 16 0 16 -6 21 -25 21 -14 0 -25 4 -25 9 0 5
8 7 19 4 29 -7 34 34 9 68 -30 40 -32 71 -4 63 14 -5 7 8 -25 44 -47 53 -62
60 -35 15 17 -28 17 -27 -9 2 -63 73 -105 205 -90 276 6 29 6 29 -37 28 -24
-1 -92 -7 -153 -15z m355 -439 c7 -9 8 -15 2 -15 -5 0 -12 7 -16 15 -3 8 -4
15 -2 15 2 0 9 -7 16 -15z"/>
<path d="M1913 5517 c3 -9 2 -19 -4 -23 -6 -4 -3 -14 8 -26 17 -19 17 -19 -12
-16 -27 3 -30 0 -33 -26 -3 -26 -2 -28 12 -17 8 7 25 11 38 9 19 -2 24 -11 29
-45 3 -23 3 -41 0 -41 -3 0 -14 0 -24 -1 -17 -1 -17 -2 -3 -17 20 -19 20 -28
2 -21 -19 7 -25 -22 -16 -71 8 -45 -5 -65 -61 -99 -35 -20 -47 -24 -134 -39
-77 -14 -195 2 -195 27 0 5 -21 9 -47 9 -29 0 -43 -4 -35 -9 7 -4 12 -14 10
-21 -3 -14 48 -48 76 -49 10 -1 37 -6 59 -13 31 -9 36 -13 21 -19 -11 -3 24
-5 76 -3 65 2 114 9 155 24 37 12 61 17 63 10 2 -5 14 -10 27 -10 13 0 25 -5
27 -10 6 -18 93 19 171 73 91 64 145 123 153 168 4 28 3 31 -6 16 -6 -9 -15
-15 -19 -12 -5 2 -14 -2 -21 -10 -13 -16 -34 -10 -24 6 10 16 -5 59 -21 59 -8
0 -29 -9 -47 -20 -46 -28 -59 -25 -87 15 -13 19 -31 35 -40 35 -12 0 -23 21
-40 73 -28 88 -34 100 -51 105 -9 3 -11 -1 -7 -11z m87 -225 c0 -24 -8 -32
-26 -25 -10 4 -11 10 -3 24 12 24 29 25 29 1z"/>
<path d="M3411 5484 c0 -11 3 -14 6 -6 3 7 2 16 -1 19 -3 4 -6 -2 -5 -13z"/>
<path d="M1506 5441 c14 -14 114 -26 114 -13 0 15 -26 22 -78 22 -29 0 -42 -4
-36 -9z"/>
<path d="M3344 5295 c0 -66 1 -92 3 -57 2 34 2 88 0 120 -2 31 -3 3 -3 -63z"/>
<path d="M1862 5370 c0 -14 2 -19 5 -12 2 6 2 18 0 25 -3 6 -5 1 -5 -13z"/>
<path d="M3410 5376 c0 -8 5 -18 10 -21 6 -3 10 3 10 14 0 12 -4 21 -10 21 -5
0 -10 -6 -10 -14z"/>
<path d="M3348 5114 c4 -36 16 -44 26 -19 7 19 -2 42 -18 48 -8 3 -11 -6 -8
-29z"/>
<path d="M3367 5063 c-3 -5 5 -46 18 -93 13 -47 24 -74 24 -62 1 13 -6 48 -15
78 -9 31 -13 62 -10 70 5 14 -9 20 -17 7z"/>
<path d="M3411 4994 c0 -11 3 -14 6 -6 3 7 2 16 -1 19 -3 4 -6 -2 -5 -13z"/>
<path d="M3416 4832 c3 -29 10 -65 14 -80 l8 -27 1 25 c0 14 -6 50 -14 80
l-15 55 6 -53z"/>
<path d="M3440 4645 c0 -47 23 -155 33 -155 5 0 6 7 3 16 -3 9 -11 48 -17 87
-12 78 -19 97 -19 52z"/>
<path d="M3462 4650 c0 -14 2 -19 5 -12 2 6 2 18 0 25 -3 6 -5 1 -5 -13z"/>
<path d="M3502 4518 c-7 -7 -12 -16 -12 -21 0 -5 7 -1 16 8 9 9 14 18 12 20
-2 3 -10 -1 -16 -7z"/>
<path d="M3487 4417 c-11 -29 -9 -53 4 -40 6 6 9 21 7 34 -3 21 -4 22 -11 6z"/>
<path d="M0 3901 l0 -311 484 0 484 0 20 33 c19 30 19 37 7 137 -8 58 -16 131
-20 163 -4 32 -12 60 -18 61 -7 2 -75 24 -152 49 l-140 46 -240 6 c-132 4
-278 10 -325 14 l-85 6 3 46 c2 26 -1 50 -7 54 -8 4 -11 -84 -11 -304z m483
137 c31 -16 51 -38 42 -46 -3 -4 -11 1 -16 11 -6 10 -22 17 -40 17 -17 0 -28
4 -25 9 4 5 0 12 -6 14 -8 3 -5 6 5 6 10 1 28 -4 40 -11z"/>
<path d="M3941 4154 c0 -11 3 -14 6 -6 3 7 2 16 -1 19 -3 4 -6 -2 -5 -13z"/>
<path d="M3922 4135 c0 -16 2 -22 5 -12 2 9 2 23 0 30 -3 6 -5 -1 -5 -18z"/>
<path d="M7508 2897 c-11 -26 -10 -109 1 -103 5 3 11 -1 15 -9 3 -8 -1 -18 -8
-22 -13 -8 -26 -185 -31 -443 -1 -63 -8 -134 -15 -158 -11 -36 -11 -45 -1 -52
10 -5 11 -20 6 -51 -3 -24 -10 -96 -13 -159 l-7 -115 -9 88 c-6 60 -12 85 -19
78 -16 -16 -18 -81 -1 -81 10 0 14 -12 13 -42 -1 -37 -2 -39 -9 -18 l-8 25 -7
-22 c-9 -28 -41 -30 -48 -4 -4 17 -9 18 -51 8 l-47 -11 5 -61 c3 -33 10 -74
16 -89 7 -20 7 -39 1 -60 -5 -17 -10 -89 -11 -160 0 -71 -3 -133 -6 -137 -3
-5 -5 -69 -6 -143 0 -128 1 -137 26 -180 18 -31 24 -53 20 -73 -3 -15 -1 -39
5 -53 5 -14 10 -19 10 -12 1 8 14 26 30 41 21 19 31 41 36 74 8 50 22 68 36
46 6 -9 8 -2 7 21 -1 20 5 46 12 60 12 23 13 23 26 5 13 -17 14 -15 14 22 0
23 -5 43 -12 45 -6 2 -9 12 -5 21 9 23 26 22 20 -2 -8 -32 14 -33 27 -1 8 19
10 48 6 76 -5 40 -4 45 10 40 13 -5 15 -1 10 19 -4 14 -2 35 4 46 8 14 8 29 2
48 -8 21 -5 41 9 82 23 68 26 149 4 149 -10 0 -15 -11 -15 -35 0 -50 -30 -104
-57 -105 -19 0 -23 6 -23 29 0 16 -5 31 -10 33 -7 2 -5 24 5 61 8 32 15 71 15
87 0 16 5 32 10 35 6 3 10 22 10 42 0 19 11 83 25 142 14 58 33 134 41 169 8
34 21 97 29 140 8 42 19 97 25 122 14 68 12 148 -4 157 -12 7 -26 56 -27 96 0
9 -7 17 -16 17 -9 0 -13 6 -9 15 3 9 -5 61 -19 118 -13 56 -25 116 -27 132 -2
24 -4 26 -10 12z m29 -209 c-3 -7 -5 -2 -5 12 0 14 2 19 5 13 2 -7 2 -19 0
-25z m-197 -946 c0 -12 -3 -12 -15 -2 -8 7 -15 22 -15 34 1 21 1 21 15 2 8
-11 15 -26 15 -34z m230 -194 c-1 -19 -31 -83 -40 -86 -8 -3 -6 6 4 26 9 17
16 38 16 47 0 8 5 15 10 15 6 0 10 -1 10 -2z m-100 -68 c0 -5 9 -10 20 -10 23
0 26 -10 8 -28 -18 -18 -28 -15 -28 8 0 13 -7 20 -20 20 -11 0 -20 5 -20 10 0
6 9 10 20 10 11 0 20 -4 20 -10z m-19 -90 c12 0 12 -47 -1 -55 -6 -4 -10 7
-10 24 0 21 -5 31 -15 31 -12 0 -13 4 -2 27 l12 28 3 -28 c2 -15 8 -27 13 -27z
m76 8 c-3 -7 -5 -2 -5 12 0 14 2 19 5 13 2 -7 2 -19 0 -25z m-40 -30 c-3 -8
-6 -5 -6 6 -1 11 2 17 5 13 3 -3 4 -12 1 -19z"/>
<path d="M7241 2814 c0 -11 3 -14 6 -6 3 7 2 16 -1 19 -3 4 -6 -2 -5 -13z"/>
<path d="M7784 2535 c0 -104 2 -146 3 -92 2 54 2 139 0 190 -1 51 -3 7 -3 -98z"/>
<path d="M7202 2650 c0 -14 2 -19 5 -12 2 6 2 18 0 25 -3 6 -5 1 -5 -13z"/>
<path d="M3118 2623 c7 -3 16 -2 19 1 4 3 -2 6 -13 5 -11 0 -14 -3 -6 -6z"/>
<path d="M7213 2310 c0 -25 2 -35 4 -22 2 12 2 32 0 45 -2 12 -4 2 -4 -23z"/>
<path d="M7770 2324 c0 -8 5 -12 10 -9 6 3 10 10 10 16 0 5 -4 9 -10 9 -5 0
-10 -7 -10 -16z"/>
<path d="M7202 2165 c0 -16 2 -22 5 -12 2 9 2 23 0 30 -3 6 -5 -1 -5 -18z"/>
<path d="M7766 2153 c-12 -82 -18 -168 -11 -161 3 3 10 48 15 99 9 94 7 132
-4 62z"/>
<path d="M7181 2144 c0 -11 3 -14 6 -6 3 7 2 16 -1 19 -3 4 -6 -2 -5 -13z"/>
<path d="M7175 2100 c3 -5 8 -10 11 -10 2 0 4 5 4 10 0 6 -5 10 -11 10 -5 0
-7 -4 -4 -10z"/>
<path d="M7201 2094 c0 -11 3 -14 6 -6 3 7 2 16 -1 19 -3 4 -6 -2 -5 -13z"/>
<path d="M7280 2100 c0 -5 5 -10 10 -10 6 0 10 5 10 10 0 6 -4 10 -10 10 -5 0
-10 -4 -10 -10z"/>
<path d="M7222 1940 c0 -19 2 -27 5 -17 2 9 2 25 0 35 -3 9 -5 1 -5 -18z"/>
<path d="M7257 1962 c-5 -7 -6 -35 -2 -62 5 -40 11 -50 25 -50 11 0 22 5 25
10 3 6 24 10 45 10 38 0 38 1 36 35 -3 33 -16 63 -16 37 0 -8 -18 -12 -49 -12
-44 0 -50 3 -53 23 -2 16 -5 18 -11 9z m113 -62 c0 -5 -22 -10 -50 -10 -27 0
-50 5 -50 10 0 6 23 10 50 10 28 0 50 -4 50 -10z"/>
<path d="M7752 1920 c0 -19 2 -27 5 -17 2 9 2 25 0 35 -3 9 -5 1 -5 -18z"/>
<path d="M7155 1920 c3 -5 8 -10 11 -10 2 0 4 5 4 10 0 6 -5 10 -11 10 -5 0
-7 -4 -4 -10z"/>
<path d="M7236 1891 c-4 -7 -5 -15 -2 -18 9 -9 19 4 14 18 -4 11 -6 11 -12 0z"/>
<path d="M7209 1885 c-1 -5 0 -18 1 -28 1 -10 -3 -24 -10 -31 -8 -10 -7 -15 5
-20 15 -5 15 -7 1 -22 -21 -20 -21 -74 -1 -74 8 0 15 8 15 18 0 9 7 30 16 47
10 19 11 31 5 33 -6 2 -11 16 -11 30 0 26 -18 67 -21 47z"/>
<path d="M7631 1814 c0 -11 3 -14 6 -6 3 7 2 16 -1 19 -3 4 -6 -2 -5 -13z"/>
<path d="M7621 1777 c0 -10 -5 -16 -10 -13 -5 3 -11 -10 -13 -29 -4 -34 -4
-34 15 -14 12 12 17 29 14 47 -2 15 -5 19 -6 9z"/>
<path d="M7238 1703 c6 -2 18 -2 25 0 6 3 1 5 -13 5 -14 0 -19 -2 -12 -5z"/>
<path d="M7601 1669 c-6 -18 -11 -41 -10 -53 0 -12 7 1 15 28 17 54 13 75 -5
25z"/>
<path d="M7250 1680 c0 -5 5 -10 10 -10 6 0 10 5 10 10 0 6 -4 10 -10 10 -5 0
-10 -4 -10 -10z"/>
<path d="M11321 1586 c-6 -25 -11 -72 -11 -105 0 -72 6 -69 -147 -75 -95 -4
-115 -2 -129 11 -12 13 -17 14 -24 3 -4 -7 -12 -10 -17 -7 -6 4 -36 -7 -67
-23 -31 -17 -71 -30 -88 -30 -20 0 -36 -8 -49 -25 -16 -19 -27 -23 -57 -21
-20 2 -43 -1 -49 -7 -9 -6 -22 -6 -40 1 -16 6 -48 13 -73 16 -37 4 -50 0 -78
-21 -31 -23 -36 -24 -83 -13 -57 14 -82 3 -60 -24 11 -13 7 -18 -24 -31 -42
-17 -55 -19 -55 -7 0 4 -12 16 -27 26 -26 19 -26 19 -21 0 4 -17 0 -20 -33
-21 -22 0 -39 3 -39 8 0 5 -7 9 -16 9 -10 0 -14 6 -10 15 4 11 -1 15 -19 15
-14 0 -25 4 -25 9 0 18 -141 29 -232 18 -40 -5 -58 -4 -58 4 0 7 -13 8 -39 4
-33 -5 -40 -4 -43 12 -2 10 1 26 6 35 14 23 -2 38 -18 17 -7 -11 -33 -19 -71
-22 -33 -3 -69 -7 -80 -9 -11 -2 -30 6 -43 20 -27 29 -78 28 -75 -1 1 -16 -4
-18 -34 -12 -26 5 -40 2 -54 -11 -17 -15 -19 -15 -19 -1 0 18 -78 47 -100 37
-8 -4 -25 -12 -37 -18 -28 -15 -60 -15 -68 -2 -3 6 -18 7 -33 3 -29 -7 -56
-35 -42 -43 5 -3 5 -12 0 -20 -8 -13 -10 -13 -10 1 0 17 -28 34 -38 24 -3 -3
0 -5 6 -5 7 0 12 -5 12 -11 0 -6 -8 -8 -19 -4 -11 3 -22 1 -26 -5 -8 -13 -92
-13 -100 0 -4 6 -19 9 -35 8 -15 -1 -34 3 -42 9 -7 6 -29 8 -48 6 -19 -3 -60
-4 -90 -4 -60 1 -68 -2 -93 -39 -9 -13 -17 -19 -17 -13 0 8 -10 6 -30 -5 -16
-9 -29 -21 -29 -27 3 -24 -2 -33 -21 -38 -11 -3 -22 -1 -25 3 -3 5 5 11 17 13
13 2 -3 5 -35 6 -55 1 -58 0 -52 -20 7 -20 6 -20 -25 -4 -30 15 -33 15 -46 -2
-7 -10 -14 -24 -14 -30 0 -16 -20 -17 -20 -2 0 6 5 19 10 29 6 10 6 21 2 24
-9 6 -33 -8 -35 -20 -4 -17 -28 -12 -49 9 -18 19 -20 19 -14 4 3 -10 6 -23 6
-28 0 -5 6 -9 13 -9 8 0 14 -7 14 -15 0 -19 1 -19 -27 5 -18 16 -26 18 -33 8
-6 -9 -7 -8 -4 4 8 23 -18 41 -48 34 -14 -4 -35 -1 -47 5 -17 9 -24 8 -34 -5
-11 -16 -15 -16 -43 -1 -17 8 -31 22 -31 29 0 21 -31 28 -50 11 -21 -19 -84
-23 -103 -6 -11 9 -17 8 -27 -4 -9 -10 -17 -12 -30 -5 -16 8 -19 5 -25 -29 -3
-21 -5 -175 -4 -342 l3 -304 -47 -269 c-26 -148 -47 -273 -47 -277 0 -5 853
-9 1930 -9 l1930 0 0 719 0 718 -38 -4 c-35 -4 -40 -2 -51 25 -7 17 -11 38
-10 48 4 26 -11 85 -26 107 -11 16 -14 13 -24 -27z m-1719 -243 c-6 -2 -10 -9
-6 -14 3 -5 0 -9 -5 -9 -12 0 -14 13 -4 23 3 4 11 7 17 6 6 0 5 -3 -2 -6z
m-72 -29 c0 -2 -7 -4 -15 -4 -8 0 -15 4 -15 10 0 5 7 7 15 4 8 -4 15 -8 15
-10z m-1415 -124 c3 -5 -1 -10 -10 -10 -9 0 -13 5 -10 10 3 6 8 10 10 10 2 0
7 -4 10 -10z m338 -17 c-7 -2 -19 -2 -25 0 -7 3 -2 5 12 5 14 0 19 -2 13 -5z
m327 -8 c0 -8 -7 -15 -15 -15 -16 0 -20 12 -8 23 11 12 23 8 23 -8z m-150 -15
c0 -5 -8 -10 -17 -10 -15 0 -16 2 -3 10 19 12 20 12 20 0z m65 0 c3 -6 -5 -10
-19 -10 -14 0 -28 5 -31 10 -3 6 5 10 19 10 14 0 28 -4 31 -10z m1655 -54 c0
-17 -22 -26 -62 -26 -17 0 -59 -5 -94 -12 -51 -9 -64 -15 -64 -30 0 -18 -20
-21 -157 -23 -23 0 -48 -6 -55 -13 -16 -16 -28 -15 -50 5 -14 13 -21 14 -30 5
-15 -15 -58 -15 -94 -2 -51 20 -1 37 131 44 119 7 221 22 240 37 6 4 43 10 84
13 41 4 77 9 80 11 11 12 71 4 71 -9z m-1713 -392 c-3 -3 -12 -4 -19 -1 -8 3
-5 6 6 6 11 1 17 -2 13 -5z m-209 -91 c-10 -2 -28 -2 -40 0 -13 2 -5 4 17 4
22 1 32 -1 23 -4z m-81 -18 c0 -10 -8 -15 -20 -13 -30 4 -34 28 -4 28 15 0 24
-6 24 -15z m228 -5 c3 -5 -3 -10 -15 -10 -12 0 -18 5 -15 10 3 6 10 10 15 10
5 0 12 -4 15 -10z m-108 -6 c-3 -3 -12 -4 -19 -1 -8 3 -5 6 6 6 11 1 17 -2 13
-5z m923 -348 c0 -3 -4 -8 -10 -11 -5 -3 -10 -1 -10 4 0 6 5 11 10 11 6 0 10
-2 10 -4z m117 -17 c-14 -8 -22 -8 -30 0 -8 8 -3 11 19 11 25 -1 27 -2 11 -11z
m1001 -105 c39 -6 43 -21 5 -21 -16 -1 -70 -2 -120 -3 -66 -2 -98 1 -109 11
-15 12 -14 14 1 19 19 7 168 3 223 -6z m-919 -10 c2 -2 -19 -4 -47 -4 -29 0
-52 4 -52 9 0 8 90 3 99 -5z m1109 -6 c-43 -6 -84 -6 -110 0 -36 8 -26 10 67
10 110 -1 110 -1 43 -10z m159 6 c-3 -3 -12 -4 -19 -1 -8 3 -5 6 6 6 11 1 17
-2 13 -5z m198 -4 c7 -12 -147 -11 -166 1 -9 5 21 9 73 9 48 0 90 -4 93 -10z
m-1095 -21 c8 -1 -6 -5 -32 -9 -61 -11 -195 -7 -207 5 -8 8 178 12 239 4z
m-253 -15 c-3 -3 -12 -4 -19 -1 -8 3 -5 6 6 6 11 1 17 -2 13 -5z"/>
<path d="M9854 1401 c-2 -2 -4 -15 -4 -27 0 -22 -3 -23 -59 -20 -47 3 -61 0
-66 -12 -7 -19 4 -30 14 -14 5 9 20 10 55 3 57 -11 91 -4 76 14 -11 13 -4 45
10 45 4 0 10 -7 14 -15 3 -8 12 -15 20 -15 11 0 12 5 3 24 -10 21 -48 31 -63
17z"/>
<path d="M10900 1400 c0 -5 5 -10 11 -10 5 0 7 5 4 10 -3 6 -8 10 -11 10 -2 0
-4 -4 -4 -10z"/>
<path d="M10310 1382 c0 -7 -7 -12 -16 -12 -8 0 -12 -4 -9 -10 3 -5 10 -10 15
-10 10 0 22 31 15 38 -3 3 -5 0 -5 -6z"/>
<path d="M9960 1350 c26 -22 40 -26 40 -9 0 5 -4 8 -9 5 -5 -3 -14 1 -21 9 -7
8 -17 15 -23 15 -5 0 0 -9 13 -20z"/>
<path d="M9920 1340 c0 -5 5 -10 10 -10 6 0 10 5 10 10 0 6 -4 10 -10 10 -5 0
-10 -4 -10 -10z"/>
<path d="M10273 1333 c-43 -4 -61 -23 -23 -23 11 0 20 -4 20 -10 0 -5 8 -10
17 -10 9 0 14 3 10 6 -15 15 22 31 64 29 31 -3 38 -1 24 5 -21 9 -39 9 -112 3z"/>
<path d="M8205 1220 c-3 -5 -1 -10 4 -10 6 0 11 5 11 10 0 6 -2 10 -4 10 -3 0
-8 -4 -11 -10z"/>
</g>
</svg>
